<svg id="Layer_1" data-name="Layer 1" xmlns="http://www.w3.org/2000/svg" viewBox="0 0 1880.30552 456.51829"><path d="M192.57906,1008.26H374.89127a19.95129,19.95129,0,0,1,14.91177,6.69637l58.35787,65.6526a14.71421,14.71421,0,0,0,5.08867,3.729c5.363,2.3434,15.98567,4.56874,25.021-8.286a15.02807,15.02807,0,0,0,2.73393-8.63852l-.002-416.06355a18.93954,18.93954,0,0,0-.11549-2.14808c-.51866-4.55521-5.98388-19.58182-16.36393-19.58159H331.09691a11.428,11.428,0,0,0-1.40147.08568c-5.106.62936-37.221,4.9182-52.113,25.83722-15.93732-20.66063-34.26487-24.3059-42.84929-25.76946a10.82778,10.82778,0,0,0-1.82273-.15351l-136.47571.00006a16.3467,16.3467,0,0,0-8.578,2.37875c-4.363,2.68621-9.78035,8.10341-9.78035,18.43995V944.26015A47.23068,47.23068,0,0,0,95.9931,981.55143a46.10228,46.10228,0,0,0,10.56284,6.19273,48.148,48.148,0,0,0,41.17834-2.16331c55.80788-29.686,204.021-116.11206,204.021-116.11206s25.15591-14.31285,0-35.13153c-29.05941-17.78263-131.85165-76.76889-131.85165-76.76889s-13.71679-7.36023-24.402,6.12719a19.77227,19.77227,0,0,0-4.22374,12.28478l0,120.813,40.33619-22.55358-1.30116-65.05838,69.1587,39.23037a3.32522,3.32522,0,0,1,.04467,5.75877l-167.65839,98.573s-12.14423,3.90351-14.74657-7.37328c-.43372-25.15591.43372-276.28126.43372-276.28126l108.86436.43372s30.7943,2.16861,51.17926,42.07109c22.95513-30.259,40.0532-39.04222,45.92646-41.33461a10.92324,10.92324,0,0,1,3.93438-.74289l114.52-.42731v342.29112a1,1,0,0,1-1.72759.686L404.93747,974.622a19.95124,19.95124,0,0,0-14.51633-6.26444H253.2506a10.88861,10.88861,0,0,0-6.226,1.95562Z" transform="translate(-78.07631 -629.62014)" style="fill:#fab01c"/><path d="M574.54834,722.56434H684.9082a12.53643,12.53643,0,0,1,8.98975,3.56495,11.75,11.75,0,0,1,3.72021,8.835,10.78041,10.78041,0,0,1-3.72021,8.5249,13.18322,13.18322,0,0,1-8.98975,3.25537H585.08838l2.78955-5.27v78.11963l-3.09961-3.40967H670.958a12.84252,12.84252,0,0,1,8.99023,3.40967,11.62135,11.62135,0,0,1,3.71973,8.99023,10.78006,10.78006,0,0,1-3.71973,8.52491,13.18641,13.18641,0,0,1-8.99023,3.25488h-85.25l2.16992-3.09961v80.29l-1.85986-2.17041H684.9082a12.25028,12.25028,0,0,1,8.98975,3.72021,11.56505,11.56505,0,0,1,3.72021,8.37012,11.24916,11.24916,0,0,1-3.72021,8.67969,12.81788,12.81788,0,0,1-8.98975,3.41015H574.54834a12.70078,12.70078,0,0,1-12.71-12.71V735.2743a12.7008,12.7008,0,0,1,12.71-12.71Z" transform="translate(-78.07631 -629.62014)" style="fill:#fff"/><path d="M734.1958,746.43446a12.8117,12.8117,0,0,1-8.98975-3.41016,11.25016,11.25016,0,0,1-3.72021-8.68017,10.7873,10.7873,0,0,1,3.72021-8.5249,13.17648,13.17648,0,0,1,8.98975-3.25489H878.34668a12.83353,12.83353,0,0,1,8.98828,3.41016,11.26229,11.26229,0,0,1,3.7207,8.67969,10.781,10.781,0,0,1-3.7207,8.52539,13.17883,13.17883,0,0,1-8.98828,3.25488Zm71.92041,193.12988a12.46226,12.46226,0,0,1-13.02051-12.71v-191.27h26.35059v191.27a12.24106,12.24106,0,0,1-3.7207,8.98975A13.00867,13.00867,0,0,1,806.11621,939.56434Z" transform="translate(-78.07631 -629.62014)" style="fill:#fff"/><path d="M1117.666,831.06434a122.9072,122.9072,0,0,1-7.75,44.17481,108.34183,108.34183,0,0,1-21.8545,35.49512,99.21248,99.21248,0,0,1-33.16992,23.56,108.80771,108.80771,0,0,1-83.70019,0,99.16371,99.16371,0,0,1-33.16993-23.56,106.13832,106.13832,0,0,1-21.70019-35.49512,132.26891,132.26891,0,0,1,0-88.34961,106.23531,106.23531,0,0,1,21.70019-35.49512,99.23258,99.23258,0,0,1,33.16993-23.56006,108.80783,108.80783,0,0,1,83.70019,0,99.28142,99.28142,0,0,1,33.16992,23.56006,108.44315,108.44315,0,0,1,21.8545,35.49512A122.9452,122.9452,0,0,1,1117.666,831.06434Zm-26.96973,0q0-25.11034-9.91992-44.79492a76.59011,76.59011,0,0,0-27.43457-30.84521q-17.51806-11.15991-40.45508-11.15967-22.6333,0-40.14551,11.15967a76.74219,76.74219,0,0,0-27.43457,30.68994q-9.92579,19.53-9.91992,44.95019,0,25.11036,9.91992,44.79493a76.48751,76.48751,0,0,0,27.43457,30.84521q17.51074,11.15991,40.14551,11.15967,22.93652,0,40.45508-11.15967a76.55831,76.55831,0,0,0,27.43457-30.84521Q1090.69337,856.17688,1090.69629,831.06434Zm36.88965,122.75977a11.01373,11.01373,0,0,1,8.06054,3.41016,11.38257,11.38257,0,0,1,3.41016,8.37011q0,5.885-5.73535,11.31494a60.31943,60.31943,0,0,1-14.87988,9.91993,95.31167,95.31167,0,0,1-19.21973,6.97558,78.89316,78.89316,0,0,1-18.75488,2.47949q-18.60058,0-30.69043-3.875a109.34008,109.34008,0,0,1-20.76953-8.835q-8.68361-4.96215-17.20508-8.835-8.52979-3.87963-20.30567-3.875a23.5992,23.5992,0,0,0-9.91992,1.85987q-4.03271,1.86034-7.75,3.72021a19.18555,19.18555,0,0,1-8.67969,1.85986,11.5173,11.5173,0,0,1-8.835-3.875,12.68862,12.68862,0,0,1-3.56543-8.835q0-8.06469,7.12989-10.85009l57.04-20.46,28.21,2.79-53.00977,18.6001,8.99024-6.51025a59.7428,59.7428,0,0,1,21.70019,3.72021,164.70068,164.70068,0,0,1,18.29,8.37012,163.89412,163.89412,0,0,0,18.29,8.36963,61.57892,61.57892,0,0,0,22.31933,3.72021q10.84865,0,17.98047-3.25488a86.023,86.023,0,0,0,11.78028-6.355,80.25693,80.25693,0,0,0,8.52441-6.665A11.11665,11.11665,0,0,1,1127.58594,953.82411Z" transform="translate(-78.07631 -629.62014)" style="fill:#fff"/><path d="M1233.60645,754.80458,1160.75684,932.1244a12.22929,12.22929,0,0,1-4.33985,6.04492,10.69956,10.69956,0,0,1-6.51074,2.3252q-5.8916,0-8.67969-3.25537a12.7383,12.7383,0,0,1-3.09961-7.59473,19.08161,19.08161,0,0,1,.62012-4.6499l80.29-194.99023a14.34062,14.34062,0,0,1,5.11426-6.50977,11.25272,11.25272,0,0,1,7.28515-1.86035,12.872,12.872,0,0,1,7.28516,2.17041,11.12633,11.12633,0,0,1,4.49512,6.19971l79.97949,193.12988a14.06078,14.06078,0,0,1,.93066,4.96,11.61327,11.61327,0,0,1-3.7207,8.99023,12.05692,12.05692,0,0,1-8.36914,3.41016,11.55869,11.55869,0,0,1-7.13086-2.3252,13.96472,13.96472,0,0,1-4.64941-6.355l-73.78028-177.31982Zm-57.34961,126.78955,10.54-24.17969h92.06933l4.65039,24.17969Z" transform="translate(-78.07631 -629.62014)" style="fill:#fff"/><path d="M1447.81641,722.56434q22.938,0,40.14453,8.52491a79.92908,79.92908,0,0,1,28.67578,23.71533,107.03583,107.03583,0,0,1,17.2041,34.875,147.29412,147.29412,0,0,1,5.73535,41.38476q0,30.07251-10.22949,54.71485-10.23047,24.64525-30.53516,39.21533-20.30712,14.57447-50.99511,14.56982H1370.626a12.70244,12.70244,0,0,1-12.71-12.71V735.2743a12.70245,12.70245,0,0,1,12.71-12.71Zm-3.10059,192.81983q24.18018,0,39.06055-11.46973,14.87988-11.46533,21.85449-30.68994a122.73013,122.73013,0,0,0,6.97559-42.16016,128.78416,128.78416,0,0,0-3.875-31.93017,82.40814,82.40814,0,0,0-12.08985-26.96973,59.0701,59.0701,0,0,0-21.08008-18.6001q-12.86718-6.81518-30.8457-6.81982h-63.23926l2.47949-2.79V918.48427l-1.85937-3.1001Z" transform="translate(-78.07631 -629.62014)" style="fill:#fff"/><path d="M1592.89453,722.56434h110.36035a12.53838,12.53838,0,0,1,8.99024,3.56495,11.75133,11.75133,0,0,1,3.71972,8.835,10.78156,10.78156,0,0,1-3.71972,8.5249,13.18534,13.18534,0,0,1-8.99024,3.25537h-99.82031l2.79-5.27v78.11963l-3.09961-3.40967h86.17969a12.84336,12.84336,0,0,1,8.99023,3.40967,11.623,11.623,0,0,1,3.71973,8.99023,10.78161,10.78161,0,0,1-3.71973,8.52491,13.18728,13.18728,0,0,1-8.99023,3.25488h-85.25l2.16992-3.09961v80.29l-1.85938-2.17041h98.88965a12.25215,12.25215,0,0,1,8.99024,3.72021,11.56639,11.56639,0,0,1,3.71972,8.37012,11.2504,11.2504,0,0,1-3.71972,8.67969,12.81991,12.81991,0,0,1-8.99024,3.41015H1592.89453a12.70244,12.70244,0,0,1-12.71-12.71V735.2743a12.70245,12.70245,0,0,1,12.71-12.71Z" transform="translate(-78.07631 -629.62014)" style="fill:#fff"/><path d="M1769.90234,722.25429a14.18729,14.18729,0,0,1,6.04493,1.55029,12.4252,12.4252,0,0,1,5.11523,4.33984l82.14941,124-11.16015-.31006,83.08008-123.68994q4.3374-5.885,10.54-5.89013a14.08312,14.08312,0,0,1,8.835,3.875,11.53093,11.53093,0,0,1,3.875,8.835V926.85438a12.24013,12.24013,0,0,1-3.71973,8.98975,12.61893,12.61893,0,0,1-9.29981,3.72021,12.46226,12.46226,0,0,1-13.0205-12.71v-168.02l7.75,1.23975-73.16016,111.29a15.17979,15.17979,0,0,1-4.49414,4.03027,13.52742,13.52742,0,0,1-11.31543,0,11.62463,11.62463,0,0,1-4.33984-4.03027l-72.23047-110.98,6.51074-8.36963V926.85438a12.83339,12.83339,0,0,1-3.41016,8.98975,11.98661,11.98661,0,0,1-17.36035,0,12.81167,12.81167,0,0,1-3.41015-8.98975V734.96425a12.97024,12.97024,0,0,1,13.0205-12.71Z" transform="translate(-78.07631 -629.62014)" style="fill:#fff"/></svg>