<svg id="Layer_1" data-name="Layer 1" xmlns="http://www.w3.org/2000/svg" viewBox="0 0 1396.54346 276.83008"><path d="M314.43823,864.68506H424.7981a12.53641,12.53641,0,0,1,8.98974,3.56494,11.75,11.75,0,0,1,3.72022,8.835,10.78042,10.78042,0,0,1-3.72022,8.5249,13.18321,13.18321,0,0,1-8.98974,3.25537H324.97827l2.78955-5.27v78.11963l-3.09961-3.40966H410.8479a12.84256,12.84256,0,0,1,8.99023,3.40966,11.62133,11.62133,0,0,1,3.71973,8.99024,10.78,10.78,0,0,1-3.71973,8.5249,13.18641,13.18641,0,0,1-8.99023,3.25488h-85.25l2.16992-3.09961v80.29l-1.85986-2.17041H424.7981a12.25028,12.25028,0,0,1,8.98974,3.72022,11.56506,11.56506,0,0,1,3.72022,8.37011,11.24914,11.24914,0,0,1-3.72022,8.67969,12.81784,12.81784,0,0,1-8.98974,3.41016H314.43823a12.7008,12.7008,0,0,1-12.71-12.71V877.395a12.70078,12.70078,0,0,1,12.71-12.71Z" transform="translate(-301.72827 -861.58496)" style="fill:#fff"/><path d="M474.08569,888.55518A12.81166,12.81166,0,0,1,465.096,885.145a11.25017,11.25017,0,0,1-3.72022-8.68018,10.78731,10.78731,0,0,1,3.72022-8.5249,13.17647,13.17647,0,0,1,8.98974-3.25488H618.23657a12.83352,12.83352,0,0,1,8.98828,3.41015,11.26229,11.26229,0,0,1,3.72071,8.67969,10.781,10.781,0,0,1-3.72071,8.52539,13.17884,13.17884,0,0,1-8.98828,3.25489Zm71.92041,193.12988a12.46227,12.46227,0,0,1-13.0205-12.71v-191.27h26.35058v191.27a12.241,12.241,0,0,1-3.7207,8.98974A13.00867,13.00867,0,0,1,546.0061,1081.68506Z" transform="translate(-301.72827 -861.58496)" style="fill:#fff"/><path d="M857.55591,973.18506a122.90718,122.90718,0,0,1-7.75,44.1748,108.34176,108.34176,0,0,1-21.85449,35.49512,99.21245,99.21245,0,0,1-33.16993,23.56006,108.80771,108.80771,0,0,1-83.70019,0,99.1636,99.1636,0,0,1-33.16992-23.56006,106.1383,106.1383,0,0,1-21.7002-35.49512,132.26907,132.26907,0,0,1,0-88.34961,106.23535,106.23535,0,0,1,21.7002-35.49511,99.2323,99.2323,0,0,1,33.16992-23.56006,108.80771,108.80771,0,0,1,83.70019,0,99.28121,99.28121,0,0,1,33.16993,23.56006,108.44314,108.44314,0,0,1,21.85449,35.49511A122.94529,122.94529,0,0,1,857.55591,973.18506Zm-26.96973,0q0-25.11036-9.91992-44.79492a76.59007,76.59007,0,0,0-27.43457-30.84522q-17.51806-11.15991-40.45508-11.15967-22.63331,0-40.14551,11.15967a76.74219,76.74219,0,0,0-27.43457,30.68994q-9.92577,19.53-9.91992,44.9502,0,25.11035,9.91992,44.79492a76.48754,76.48754,0,0,0,27.43457,30.84522q17.51075,11.15991,40.14551,11.15966,22.93653,0,40.45508-11.15966A76.55833,76.55833,0,0,0,820.66626,1017.98Q830.58326,998.29761,830.58618,973.18506Zm36.88965,122.75976a11.01375,11.01375,0,0,1,8.06055,3.41016,11.3826,11.3826,0,0,1,3.41015,8.37012q0,5.885-5.73535,11.31494A60.3197,60.3197,0,0,1,858.3313,1128.96a95.31208,95.31208,0,0,1-19.21973,6.97559,78.89368,78.89368,0,0,1-18.75488,2.47949q-18.60058,0-30.69043-3.875a109.34072,109.34072,0,0,1-20.76953-8.835q-8.68359-4.96216-17.20508-8.835-8.52978-3.87964-20.30566-3.875a23.59922,23.59922,0,0,0-9.91993,1.85986q-4.0327,1.86034-7.75,3.72022a19.18567,19.18567,0,0,1-8.67968,1.85986,11.51732,11.51732,0,0,1-8.835-3.875,12.68861,12.68861,0,0,1-3.56543-8.835q0-8.06471,7.12988-10.8501l57.04-20.46,28.21,2.79-53.00977,18.6001,8.99024-6.51026a59.74279,59.74279,0,0,1,21.70019,3.72022,164.70246,164.70246,0,0,1,18.29,8.37011,163.895,163.895,0,0,0,18.29,8.36963,61.57893,61.57893,0,0,0,22.31934,3.72022q10.84863,0,17.98047-3.25489a86.02342,86.02342,0,0,0,11.78027-6.355,80.25564,80.25564,0,0,0,8.52441-6.665A11.11664,11.11664,0,0,1,867.47583,1095.94482Z" transform="translate(-301.72827 -861.58496)" style="fill:#fff"/><path d="M973.49634,896.92529l-72.84961,177.31983a12.22933,12.22933,0,0,1-4.33985,6.04492,10.69959,10.69959,0,0,1-6.51074,2.32519q-5.89159,0-8.67968-3.25537a12.73817,12.73817,0,0,1-3.09961-7.59472,19.08165,19.08165,0,0,1,.62011-4.64991L958.927,872.125a14.34073,14.34073,0,0,1,5.11426-6.50977,11.25285,11.25285,0,0,1,7.28516-1.86035,12.872,12.872,0,0,1,7.28515,2.17041,11.1264,11.1264,0,0,1,4.49512,6.19971l79.97949,193.12988a14.06084,14.06084,0,0,1,.93067,4.96,11.61329,11.61329,0,0,1-3.72071,8.99024,12.05691,12.05691,0,0,1-8.36914,3.41015,11.55876,11.55876,0,0,1-7.13086-2.32519,13.96478,13.96478,0,0,1-4.64941-6.355L966.36646,896.61523Zm-57.34961,126.78955,10.54-24.17968h92.06933l4.65039,24.17968Z" transform="translate(-301.72827 -861.58496)" style="fill:#fff"/><path d="M1187.7063,864.68506q22.938,0,40.14453,8.5249a79.92918,79.92918,0,0,1,28.67578,23.71533,107.03583,107.03583,0,0,1,17.2041,34.875,147.29424,147.29424,0,0,1,5.73535,41.38477q0,30.07251-10.22949,54.71484-10.23047,24.64527-30.53515,39.21533-20.30714,14.57446-50.99512,14.56983h-77.19043a12.70245,12.70245,0,0,1-12.71-12.71V877.395a12.70244,12.70244,0,0,1,12.71-12.71Zm-3.10059,192.81982q24.18018,0,39.06055-11.46972,14.87988-11.46534,21.85449-30.68995a122.73008,122.73008,0,0,0,6.97559-42.16015,128.78418,128.78418,0,0,0-3.875-31.93018,82.40808,82.40808,0,0,0-12.08985-26.96972,59.07015,59.07015,0,0,0-21.08007-18.6001q-12.8672-6.81519-30.84571-6.81983h-63.23925l2.47949-2.79V1060.605l-1.85938-3.1001Z" transform="translate(-301.72827 -861.58496)" style="fill:#fff"/><path d="M1332.78442,864.68506h110.36036A12.53837,12.53837,0,0,1,1452.135,868.25a11.75136,11.75136,0,0,1,3.71973,8.835,10.78157,10.78157,0,0,1-3.71973,8.5249,13.18533,13.18533,0,0,1-8.99023,3.25537h-99.82032l2.79-5.27v78.11963l-3.09961-3.40966h86.17969a12.84338,12.84338,0,0,1,8.99023,3.40966,11.623,11.623,0,0,1,3.71973,8.99024,10.78154,10.78154,0,0,1-3.71973,8.5249,13.18726,13.18726,0,0,1-8.99023,3.25488h-85.25l2.16992-3.09961v80.29l-1.85937-2.17041h98.88965a12.25216,12.25216,0,0,1,8.99023,3.72022,11.5664,11.5664,0,0,1,3.71973,8.37011,11.25038,11.25038,0,0,1-3.71973,8.67969,12.81987,12.81987,0,0,1-8.99023,3.41016H1332.78442a12.70247,12.70247,0,0,1-12.71-12.71V877.395a12.70245,12.70245,0,0,1,12.71-12.71Z" transform="translate(-301.72827 -861.58496)" style="fill:#fff"/><path d="M1509.79224,864.375a14.18725,14.18725,0,0,1,6.04492,1.55029,12.42522,12.42522,0,0,1,5.11523,4.33985l82.14942,124-11.16016-.31006,83.08008-123.68994q4.3374-5.885,10.54-5.89014a14.08317,14.08317,0,0,1,8.835,3.875,11.53094,11.53094,0,0,1,3.875,8.835V1068.9751a12.24011,12.24011,0,0,1-3.71973,8.98974,12.61893,12.61893,0,0,1-9.2998,3.72022,12.46227,12.46227,0,0,1-13.02051-12.71v-168.02l7.75,1.23974-73.16016,111.29a15.1797,15.1797,0,0,1-4.49414,4.03028,13.52752,13.52752,0,0,1-11.31543,0,11.62465,11.62465,0,0,1-4.33984-4.03028l-72.23047-110.98,6.51074-8.36963V1068.9751a12.8334,12.8334,0,0,1-3.41015,8.98974,11.9866,11.9866,0,0,1-17.36036,0,12.81169,12.81169,0,0,1-3.41015-8.98974V877.085a12.97024,12.97024,0,0,1,13.02051-12.71Z" transform="translate(-301.72827 -861.58496)" style="fill:#fff"/></svg>