<svg id="Layer_1" data-name="Layer 1" xmlns="http://www.w3.org/2000/svg" viewBox="0 0 805.85646 913.03658"><path d="M892.01623,1141.17039h364.62441a39.90254,39.90254,0,0,1,29.82354,13.39274l116.71574,131.3052a29.42837,29.42837,0,0,0,10.17735,7.458c10.726,4.6868,31.97134,9.13748,50.04206-16.572a30.05628,30.05628,0,0,0,5.46786-17.277l-.00405-832.1271a37.87242,37.87242,0,0,0-.231-4.29617c-1.03732-9.1104-11.96775-39.16363-32.72785-39.16318H1169.05192a22.85575,22.85575,0,0,0-2.80293.17136c-10.212,1.25873-74.442,9.83641-104.226,51.67444-31.87465-41.32126-68.52975-48.6118-85.69858-51.53893a21.65576,21.65576,0,0,0-3.64547-.307l-272.95142.00011a32.69337,32.69337,0,0,0-17.1561,4.75752c-8.726,5.37241-19.56069,16.20681-19.56069,36.87989V1013.1707c0,29.01224,12.96511,56.72916,35.83357,74.58256A92.20512,92.20512,0,0,0,719.97,1100.13871c26.59749,11.1627,56.89045,9.21971,82.35668-4.32661C913.94243,1036.44,1210.36859,863.588,1210.36859,863.588s50.31181-28.62569,0-70.263c-58.11883-35.56525-263.70331-153.53778-263.70331-153.53778s-27.43358-14.72046-48.804,12.25438a39.54447,39.54447,0,0,0-8.44748,24.56956L889.4139,918.237l80.67239-45.10714L967.484,743.01309l138.3174,78.46075a6.65043,6.65043,0,0,1,.08934,11.51754l-335.31678,197.146s-24.28846,7.807-29.49313-14.74657c-.86745-50.31181.86744-552.56252.86744-552.56252l217.72872.86744s61.5886,4.33723,102.35852,84.14218c45.91025-60.518,80.1064-78.08443,91.85291-82.66921a21.84616,21.84616,0,0,1,7.86877-1.48579l229.04-.85462v684.58224a2,2,0,0,1-3.45518,1.372l-70.60894-74.88827a39.90254,39.90254,0,0,0-29.03267-12.52889H1013.3593a21.77733,21.77733,0,0,0-12.4521,3.91125Z" transform="translate(-663.01073 -383.89067)" style="fill:#1697bb"/></svg>