<svg id="Layer_1" data-name="Layer 1" xmlns="http://www.w3.org/2000/svg" viewBox="0 0 402.92823 456.51829"><path d="M913.03864,1150.38072h182.3122a19.95125,19.95125,0,0,1,14.91177,6.69637l58.35787,65.6526a14.71428,14.71428,0,0,0,5.08868,3.729c5.363,2.3434,15.98567,4.56873,25.021-8.286a15.0281,15.0281,0,0,0,2.73392-8.63851l-.002-416.06355a18.93727,18.93727,0,0,0-.11549-2.14809c-.51866-4.5552-5.98387-19.58182-16.36392-19.58159h-133.4262a11.42778,11.42778,0,0,0-1.40146.08567c-5.106.62937-37.221,4.91821-52.113,25.83723-15.93733-20.66063-34.26488-24.3059-42.8493-25.76947a10.82777,10.82777,0,0,0-1.82273-.1535l-136.47571,0a16.34673,16.34673,0,0,0-8.578,2.37876c-4.363,2.68621-9.78034,8.10341-9.78034,18.43994v293.82126a47.23068,47.23068,0,0,0,17.91678,37.29128,46.10284,46.10284,0,0,0,10.56284,6.19272,48.148,48.148,0,0,0,41.17834-2.1633c55.80788-29.686,204.021-116.11207,204.021-116.11207s25.15591-14.31284,0-35.13153c-29.05941-17.78262-131.85165-76.76889-131.85165-76.76889s-13.71679-7.36023-24.402,6.1272a19.77212,19.77212,0,0,0-4.22374,12.28478l0,120.813,40.3362-22.55357-1.30117-65.05838,69.1587,39.23037a3.32521,3.32521,0,0,1,.04467,5.75877l-167.65839,98.573s-12.14423,3.9035-14.74656-7.37328c-.43373-25.15591.43372-276.28127.43372-276.28127l108.86436.43373s30.7943,2.16861,51.17926,42.07108c22.95512-30.259,40.0532-39.04221,45.92645-41.3346a10.92307,10.92307,0,0,1,3.93438-.74289l114.52-.42732V1153.5008a1,1,0,0,1-1.72758.686l-35.30447-37.44413a19.95129,19.95129,0,0,0-14.51634-6.26445H973.71017a10.88869,10.88869,0,0,0-6.226,1.95562Z" transform="translate(-798.53589 -771.74086)" style="fill:#fab01c"/></svg>