<svg id="Layer_1" data-name="Layer 1" xmlns="http://www.w3.org/2000/svg" viewBox="0 0 1846.41667 456.5185"><path d="M114.50275,379.00449H296.81494a19.95121,19.95121,0,0,1,14.91178,6.69641l58.35787,65.65259a14.71385,14.71385,0,0,0,5.08869,3.729c5.363,2.34339,15.98566,4.56873,25.021-8.286a15.028,15.028,0,0,0,2.73392-8.63855l-.002-416.06353a18.94,18.94,0,0,0-.11548-2.14808c-.51865-4.55517-5.98386-19.58184-16.36392-19.5816H253.0206a11.432,11.432,0,0,0-1.40146.08569c-5.106.6294-37.221,4.91822-52.113,25.83722C183.5688,5.627,165.24126,1.98172,156.65683.51816a10.83131,10.83131,0,0,0-1.82272-.1535H18.3584a16.34691,16.34691,0,0,0-8.578,2.37878C5.4174,5.42966.00005,10.84684.00005,21.18338V315.00461a47.23064,47.23064,0,0,0,17.91678,37.29126,46.10533,46.10533,0,0,0,10.56285,6.19275A48.14784,48.14784,0,0,0,69.658,356.32529c55.80788-29.686,204.021-116.11206,204.021-116.11206s25.15591-14.31287,0-35.13153c-29.05942-17.78259-131.85166-76.76886-131.85166-76.76886s-13.71679-7.36023-24.402,6.1272a19.772,19.772,0,0,0-4.22374,12.28479v120.813l40.3362-22.55359-1.30116-65.05835,69.15871,39.23034A3.32522,3.32522,0,0,1,221.44,224.915L53.78165,323.488s-12.14423,3.90344-14.74656-7.37329c-.43373-25.15588.43372-276.28125.43372-276.28125l108.86435.43372s30.7943,2.16864,51.17926,42.0711c22.95511-30.259,40.05319-39.04223,45.92645-41.33459a10.92352,10.92352,0,0,1,3.93439-.74292l114.52-.42731V382.12461a1,1,0,0,1-1.72757.686l-35.30447-37.44409a19.95144,19.95144,0,0,0-14.51633-6.2644H175.17429a10.8887,10.8887,0,0,0-6.22605,1.95556Z" transform="translate(0.00065 -0.36443)" style="fill:#fab01c"/><path d="M508.37207,308.77407a13.55726,13.55726,0,0,1-4.375,10.14942,14.42143,14.42143,0,0,1-10.32519,4.20019,14.06925,14.06925,0,0,1-14.69971-14.34961V92.47427a13.83234,13.83234,0,0,1,4.19971-10.15039,14.68154,14.68154,0,0,1,10.85009-4.2002,14.34037,14.34037,0,0,1,14.3501,14.35059Z" transform="translate(0.00065 -0.36443)" style="fill:#fff"/><path d="M565.06738,143.22427h82.25a12.28983,12.28983,0,0,1,9.27491,3.84961,13.18013,13.18013,0,0,1,3.67529,9.45019,12.15041,12.15041,0,0,1-3.67529,8.92481,12.57657,12.57657,0,0,1-9.27491,3.6748h-82.25a13.00415,13.00415,0,0,1-9.2749-3.84961,12.17631,12.17631,0,0,1-4.0249-9.10058,12.01933,12.01933,0,0,1,4.0249-9.27442A13.341,13.341,0,0,1,565.06738,143.22427Zm36.75-47.60059a12.71913,12.71913,0,0,1,9.8003,4.2002,14.50023,14.50023,0,0,1,3.84961,10.15039V278.67349q0,8.40087,2.45019,12.60058a12.85685,12.85685,0,0,0,6.4751,5.77442,21.4802,21.4802,0,0,0,7.875,1.57519,14.30531,14.30531,0,0,0,6.125-1.22461,14.3598,14.3598,0,0,1,6.125-1.22558q3.49439,0,6.4751,3.32519a12.4,12.4,0,0,1,2.97461,8.5752q0,6.30029-7.34961,10.6748a31.51273,31.51273,0,0,1-16.4502,4.375q-4.90576,0-12.07519-.70019a36.54543,36.54543,0,0,1-14.17481-4.54981q-7.00561-3.84667-11.7251-12.77441-4.72485-8.9253-4.72509-25.02539V109.97427a14.34037,14.34037,0,0,1,14.35009-14.35059Z" transform="translate(0.00065 -0.36443)" style="fill:#fff"/><path d="M853.46826,141.12368a13.56474,13.56474,0,0,1,9.97461,4.02539,13.99509,13.99509,0,0,1,4.02539,10.3252v223.2998a14.15392,14.15392,0,0,1-4.02539,10.14942,13.26129,13.26129,0,0,1-9.97461,4.20019,13.66367,13.66367,0,0,1-10.32519-4.20019,14.13283,14.13283,0,0,1-4.02442-10.14942v-103.25l6.64942-2.10058q0,8.05663-5.0752,17.32519a65.81933,65.81933,0,0,1-14.34961,17.5,75.85361,75.85361,0,0,1-21.52539,13.29981,68.89511,68.89511,0,0,1-26.59961,5.07519q-23.80518,0-42.70019-12.25-18.89941-12.24756-29.92481-33.59961-11.02515-21.34423-11.0249-48.65039,0-27.64452,11.0249-49,11.02515-21.34423,29.75-33.4248a77.9027,77.9027,0,0,1,92.22461,6.125,64.73963,64.73963,0,0,1,15.22559,18.5498,42.77513,42.77513,0,0,1,5.4248,20.29981l-9.09961-2.09961V155.47427a13.7834,13.7834,0,0,1,14.34961-14.35059ZM781.36865,300.72427q17.49609,0,30.79981-8.92578a61.74274,61.74274,0,0,0,21-24.5q7.69482-15.56837,7.70019-35.17481,0-19.59667-7.70019-35.1748a61.78941,61.78941,0,0,0-21-24.5q-13.30518-8.9253-30.79981-8.92481a54.18575,54.18575,0,0,0-30.625,8.92481,61.196,61.196,0,0,0-21.17578,24.5q-7.70214,15.57714-7.69971,35.1748a77.473,77.473,0,0,0,7.69971,34.8252,62.46138,62.46138,0,0,0,21.17578,24.6748A53.40753,53.40753,0,0,0,781.36865,300.72427Z" transform="translate(0.00065 -0.36443)" style="fill:#fff"/><path d="M1075.36816,140.42349a13.75136,13.75136,0,0,1,14,14V308.77407a14.14582,14.14582,0,0,1-4.02539,10.14942,13.26129,13.26129,0,0,1-9.97461,4.20019,13.66368,13.66368,0,0,1-10.32519-4.20019,14.12476,14.12476,0,0,1-4.02442-10.14942v-33.25l6.64942-.70019q0,8.05518-5.25,16.97461a68.02076,68.02076,0,0,1-14.34961,16.80078,77.834,77.834,0,0,1-21.35059,12.94922,68.89507,68.89507,0,0,1-26.59961,5.07519,76.8176,76.8176,0,0,1-42.875-12.4248,85.71569,85.71569,0,0,1-29.92529-33.77539q-10.853-21.34424-10.85058-48.64942,0-27.64452,11.02539-48.82519,11.02513-21.17286,29.75048-33.25a76.13016,76.13016,0,0,1,42.17481-12.0752,78.53872,78.53872,0,0,1,28,4.90039,73.703,73.703,0,0,1,22.57519,13.29981,63.26676,63.26676,0,0,1,14.875,18.5498,43.86054,43.86054,0,0,1,5.25,20.29981l-9.09961-2.09961V154.42349a13.54649,13.54649,0,0,1,4.02442-9.97461A13.98739,13.98739,0,0,1,1075.36816,140.42349Zm-72.09961,160.30078q17.49611,0,30.79981-9.10059a63.0861,63.0861,0,0,0,21-24.6748q7.69482-15.56982,7.70019-35.17481,0-19.24511-7.70019-34.65039a63.44289,63.44289,0,0,0-21-24.5q-13.30518-9.09667-30.79981-9.09961a54.18578,54.18578,0,0,0-30.625,8.92481,61.45389,61.45389,0,0,0-21.17578,24.32519q-7.70214,15.40577-7.69922,35,0,19.60548,7.52442,35.17481a61.16419,61.16419,0,0,0,21,24.6748Q985.76221,300.72916,1003.26855,300.72427Z" transform="translate(0.00065 -0.36443)" style="fill:#fff"/><path d="M1297.26758,64.12368a13.56475,13.56475,0,0,1,9.97461,4.02539,13.99509,13.99509,0,0,1,4.02539,10.3252v230.2998a14.14582,14.14582,0,0,1-4.02539,10.14942,13.2613,13.2613,0,0,1-9.97461,4.20019,13.66369,13.66369,0,0,1-10.3252-4.20019,14.12475,14.12475,0,0,1-4.02441-10.14942v-33.25l6.64941-2.10058q0,8.05663-5.07519,17.32519a65.81952,65.81952,0,0,1-14.34961,17.5,75.85361,75.85361,0,0,1-21.52539,13.29981,68.89511,68.89511,0,0,1-26.59961,5.07519q-23.80518,0-42.7002-12.25-18.89941-12.24756-29.9248-33.59961-11.02442-21.34423-11.02539-48.65039,0-27.64452,11.02539-49,11.02442-21.34423,29.75-33.4248a77.9027,77.9027,0,0,1,92.22461,6.125,64.73942,64.73942,0,0,1,15.22558,18.5498,42.775,42.775,0,0,1,5.42481,20.29981l-9.09961-2.09961V78.47427a14.13507,14.13507,0,0,1,4.02441-10.15039A13.66722,13.66722,0,0,1,1297.26758,64.12368ZM1225.168,300.72427q17.49609,0,30.7998-8.92578a61.74258,61.74258,0,0,0,21-24.5q7.69484-15.56837,7.7002-35.17481,0-19.59667-7.7002-35.1748a61.78925,61.78925,0,0,0-21-24.5q-13.30516-8.9253-30.7998-8.92481a54.18573,54.18573,0,0,0-30.625,8.92481,61.196,61.196,0,0,0-21.17578,24.5q-7.70215,15.57714-7.69922,35.1748a77.47262,77.47262,0,0,0,7.69922,34.8252,62.46138,62.46138,0,0,0,21.17578,24.6748A53.40751,53.40751,0,0,0,1225.168,300.72427Z" transform="translate(0.00065 -0.36443)" style="fill:#fff"/><path d="M1453.7168,326.62368q-28.34913,0-49.34961-11.89941a83.55664,83.55664,0,0,1-32.54981-32.72559q-11.55029-20.81982-11.55078-48.125,0-30.4497,12.0752-51.97461,12.0747-21.52587,31.5-32.90039a80.15335,80.15335,0,0,1,41.125-11.375,84.0525,84.0525,0,0,1,31.15039,5.9502,77.69947,77.69947,0,0,1,26.59961,17.5,89.75015,89.75015,0,0,1,18.5498,27.2998q6.99756,15.75,7.35059,35.7002a11.79549,11.79549,0,0,1-4.2002,9.27539,14.42914,14.42914,0,0,1-9.7998,3.6748h-138.25l-6.29981-24.15039H1504.4668l-5.59961,4.90039v-7.70019a43.7558,43.7558,0,0,0-9.27539-24.67481,56.89836,56.89836,0,0,0-44.625-21.52539,59.22435,59.22435,0,0,0-20.8252,3.85059,52.62666,52.62666,0,0,0-18.5498,11.89941q-8.228,8.05518-13.29981,21-5.07714,12.95363-5.07519,31.15039,0,20.30274,8.22558,35.7002a62.1225,62.1225,0,0,0,22.92481,24.32422q14.6997,8.92528,34.2998,8.92578a65.35359,65.35359,0,0,0,21.34961-3.15039,59.05252,59.05252,0,0,0,15.5752-7.875,76.59013,76.59013,0,0,0,11.02539-9.625,15.89428,15.89428,0,0,1,9.09961-3.15039,11.9501,11.9501,0,0,1,11.90039,11.90039q0,5.95605-5.60059,10.84961-10.1543,10.853-26.77441,18.90039A80.48121,80.48121,0,0,1,1453.7168,326.62368Z" transform="translate(0.00065 -0.36443)" style="fill:#fff"/><path d="M1664.06543,139.37368q23.79784,0,38.67578,12.0752,14.87109,12.0747,19.77441,34.125h-5.25l2.4502-6.29981q4.1997-9.79541,14.34961-18.90039a89.79816,89.79816,0,0,1,23.45019-15.0498,67.01108,67.01108,0,0,1,27.6504-5.9502q23.09912,0,36.39941,9.97559a54.87631,54.87631,0,0,1,19.07519,26.59961q5.77589,16.62744,5.7754,37.27539v95.5498a14.14583,14.14583,0,0,1-4.0254,10.14942,13.6711,13.6711,0,0,1-10.32519,4.20019,13.24631,13.24631,0,0,1-9.97461-4.20019,14.12157,14.12157,0,0,1-4.02539-10.14942V213.92349a73.43024,73.43024,0,0,0-3.84961-24.32422,36.08393,36.08393,0,0,0-12.9502-17.67578q-9.10546-6.64453-24.5-6.64942a53.10552,53.10552,0,0,0-44.7998,24.3252,44.44262,44.44262,0,0,0-7,24.32422v94.85058a14.4895,14.4895,0,0,1-3.84961,10.14942,14.36507,14.36507,0,0,1-20.30078,0,14.46343,14.46343,0,0,1-3.84961-10.14942V212.87368a70.80031,70.80031,0,0,0-3.84961-23.7998,35.996,35.996,0,0,0-12.60059-17.3252q-8.75244-6.47167-23.7998-6.47461a51.36769,51.36769,0,0,0-25.5498,6.47461,51.93521,51.93521,0,0,0-18.54981,17.3252,42.99823,42.99823,0,0,0-7,23.7998v95.90039a14.14582,14.14582,0,0,1-4.02539,10.14942,13.94511,13.94511,0,0,1-19.9502,0,14.12475,14.12475,0,0,1-4.02441-10.14942v-152.25a13.97685,13.97685,0,0,1,4.02441-10.32519,14.58892,14.58892,0,0,1,20.125,0,14.33513,14.33513,0,0,1,3.85059,10.32519v26.25l-7.70019,8.39942a47.4272,47.4272,0,0,1,7.1748-18.19922,74.02787,74.02787,0,0,1,14.875-16.80078,74.8671,74.8671,0,0,1,20.2998-12.25A62.69627,62.69627,0,0,1,1664.06543,139.37368Z" transform="translate(0.00065 -0.36443)" style="fill:#fff"/></svg>