<?xml version="1.0" encoding="utf-8"?>
<!-- Generator: Adobe Illustrator 24.1.2, SVG Export Plug-In . SVG Version: 6.00 Build 0)  -->
<svg version="1.1" id="Layer_1" xmlns="http://www.w3.org/2000/svg" xmlns:xlink="http://www.w3.org/1999/xlink" x="0px" y="0px"
	 viewBox="0 0 299 114.9" style="enable-background:new 0 0 299 114.9;" xml:space="preserve">
<style type="text/css">
	.st0{fill:#FFFFFF;stroke:#FFFFFF;stroke-width:2;stroke-miterlimit:10;}
	.st1{fill:#FFFFFF;}
</style>
<g>
	<g id="Group_1203" transform="translate(-8831.578 4450.151)">
		<g id="Group_1202">
			<path id="Path_819" class="st0" d="M8895.9-4441.7c1-1.4,1.9-3.1,3.5-3.9c1.5-0.4,2.5,1.2,3.3,2.3c5.8,8.9,11.6,17.8,16.9,26.9
				c2.1,3.7,4,8.1,2.9,12.4c12.6-5.9,26.2-8.7,39.8-10.9c1.2-0.2,2.7,0.1,3,1.5v1.4c-1.7,11.1-4.5,22.1-8.8,32.4
				c-1.2,2.9-1.9,6.1-4.1,8.6c-1.6,2.4-4.2,4-6.8,5.2c-6.9,3.1-13.9,6.3-21.5,7.6c-2.2,0.4-4.4,0.4-6.5,0c-2.2,4.8-4.5,9.8-8.1,13.7
				c-2.2,2.5-5.5,4.2-8.9,4.2c-4.4,0.2-8.6-2.3-11.2-5.7c-2.8-3.7-5-7.9-6.8-12.1c-2,0.3-3.9,0.3-5.9,0c-6.9-1.1-13.4-3.8-19.7-6.6
				c-2.5-1.1-5.2-2.2-7.2-4.1c-1.6-1.7-3.2-3.6-4.1-5.9c-2-5.5-4.4-10.9-6-16.5c-2-6.7-3.5-13.5-4.6-20.4v-1.5
				c0.1-1.5,1.8-2,3.1-1.7c13.6,2.3,27.4,5.1,40,11.1l-0.4-0.5c-0.3-3.6,0.5-7.3,2.3-10.4
				C8885.2-4423.8,8890.4-4432.8,8895.9-4441.7z M8837.3-4412.7c0.1,1.7,0.3,3.5,0.7,5.1c1.6,8,3.5,15.9,6.4,23.5
				c1,2.7,2.2,5.3,3.1,8c0.7,2.2,2.3,4,3.8,5.7c1.5,1.3,3.3,2.2,5.1,3c6.2,2.7,12.4,5.5,19,6.9c2.1,0.5,4.2,0.6,6.4,0.3
				c-1.8-5.1-4.9-10.1-3.9-15.7c0.4-4.8,3.5-8.7,5.5-12.9c-1.9-3.9-3.3-8.1-5-12.1c-2.3-1.9-5.2-2.7-7.9-3.8
				C8859.8-4408.7,8848.6-4410.9,8837.3-4412.7z M8897.9-4410.2c-4.1,7-7.9,14.1-11.8,21.2c-1.7,2.7-3.1,5.6-4.6,8.4
				c-1.3,2.4-1.7,5.2-1.7,7.9c0.5,3.8,2.3,7.2,3.5,10.8c2.3,5.2,4.6,10.6,8.3,15.1c2.7,3.3,7.4,5.4,11.6,3.9
				c3.6-1.1,5.9-4.3,7.8-7.4c3.3-5.5,5.6-11.4,7.9-17.3c1.1-3,2.2-6.3,1.4-9.5c-1-3.7-3.1-7.1-5-10.4c-5.1-8.5-9.9-17.2-15.4-25.4
				C8899.1-4412.2,8898.5-4411.2,8897.9-4410.2z M8927.1-4403.7c-1.9,0.8-3.9,1.4-5.4,2.9c-1.6,3.8-3,7.8-4.8,11.6
				c2.3,4.1,5,8.2,5.7,12.9c0.6,5.7-2.5,10.9-4.4,16.1c1.6,0.2,3.3,0.2,4.9,0c7.2-1.1,13.8-4.1,20.4-7c2.6-1.2,5.2-2.4,6.9-4.8
				c2.3-2.5,2.9-6,4.3-9.1c3.6-8.6,5.9-17.8,7.7-26.9c0.4-1.6,0.6-3.2,0.7-4.8C8950.9-4410.9,8938.6-4408.4,8927.1-4403.7
				L8927.1-4403.7z"/>
		</g>
	</g>
	<g id="Group_1204" transform="translate(0.456)">
		<path id="Path_820" class="st1" d="M150.8,81.1V42.5h25.8v7.3h-17.1v8.1h15.3v7.3h-15.3v15.9L150.8,81.1z"/>
		<path id="Path_821" class="st1" d="M198.7,59.2c-0.7-0.2-1.6-0.4-2.6-0.6c-1.1-0.2-2.1-0.3-3.2-0.3c-0.6,0-1.2,0.1-1.9,0.1
			c-0.6,0.1-1.1,0.2-1.6,0.3v22.4h-8.3V53.4c1.7-0.6,3.5-1.1,5.3-1.5c2.2-0.5,4.5-0.7,6.8-0.7c0.4,0,1,0,1.6,0.1
			c0.6,0.1,1.3,0.1,1.9,0.2c0.6,0.1,1.3,0.2,1.9,0.3c0.6,0.1,1.1,0.3,1.6,0.5L198.7,59.2z"/>
		<path id="Path_822" class="st1" d="M213.7,43.4c0.1,1.4-0.5,2.7-1.5,3.6c-2,1.7-5,1.7-7,0c-2-2-2-5.2,0-7.2c2-1.7,5-1.7,7,0
			C213.2,40.7,213.7,42,213.7,43.4z M212.9,81.1h-8.3V51.8h8.3V81.1z"/>
		<path id="Path_823" class="st1" d="M220.4,44.5l8.3-1.3v8.6h10v6.9h-10V69c-0.1,1.4,0.2,2.9,0.9,4.2c0.6,1,1.8,1.6,3.7,1.6
			c0.9,0,1.8-0.1,2.8-0.3c0.9-0.1,1.7-0.4,2.6-0.7l1.2,6.5c-1.1,0.4-2.2,0.8-3.3,1.1c-1.5,0.3-3,0.5-4.5,0.4
			c-1.9,0.1-3.8-0.3-5.6-0.9c-1.4-0.5-2.6-1.4-3.6-2.6c-0.9-1.2-1.6-2.5-1.9-4c-0.4-1.7-0.5-3.4-0.5-5.2L220.4,44.5z"/>
		<path id="Path_824" class="st1" d="M254.5,43.4c0.1,1.4-0.5,2.7-1.5,3.6c-2,1.7-5,1.7-7,0c-2-2-2-5.2,0-7.2c2-1.7,5-1.7,7,0
			C254,40.7,254.5,42,254.5,43.4z M253.7,81.1h-8.3V51.8h8.3V81.1z"/>
		<path id="Path_825" class="st1" d="M273.2,81.7c-2,0-4-0.2-5.9-0.8c-1.3-0.4-2.6-1.1-3.6-2c-0.9-0.9-1.5-2-1.8-3.2
			c-0.3-1.4-0.5-2.8-0.5-4.2V39.3l8.3-1.3v31.9c0,0.7,0,1.3,0.2,2c0.1,0.5,0.3,1.1,0.6,1.5c0.4,0.4,0.8,0.8,1.4,1
			c0.8,0.3,1.6,0.5,2.4,0.5L273.2,81.7z"/>
		<path id="Path_826" class="st1" d="M290.8,81.7c-2,0-4-0.2-5.9-0.8c-1.3-0.4-2.6-1.1-3.6-2c-0.9-0.9-1.5-2-1.8-3.2
			c-0.3-1.4-0.5-2.8-0.5-4.2V39.3l8.3-1.3v31.9c0,0.7,0,1.3,0.2,2c0.1,0.5,0.3,1.1,0.6,1.5c0.4,0.4,0.8,0.8,1.4,1
			c0.8,0.3,1.6,0.5,2.4,0.5L290.8,81.7z"/>
	</g>
</g>
</svg>
