<svg id="Layer_1" data-name="Layer 1" xmlns="http://www.w3.org/2000/svg" xmlns:xlink="http://www.w3.org/1999/xlink" viewBox="0 0 1587.93343 1594.5419"><defs><linearGradient id="linear-gradient" x1="6407.18195" y1="7206.90581" x2="6787.95563" y2="7206.90581" gradientUnits="userSpaceOnUse"><stop offset="0.10215"/><stop offset="0.96256"/></linearGradient><linearGradient id="linear-gradient-2" x1="6984.85733" y1="7751.86059" x2="7408.43751" y2="7751.86059" gradientUnits="userSpaceOnUse"><stop offset="0.10215"/><stop offset="0.92957"/></linearGradient><linearGradient id="linear-gradient-3" x1="6407.18196" y1="6598.61914" x2="6896.07528" y2="6598.61914" xlink:href="#linear-gradient"/><linearGradient id="linear-gradient-4" x1="6407.18196" y1="7805.88448" x2="6896.07528" y2="7805.88448" xlink:href="#linear-gradient-2"/><linearGradient id="linear-gradient-5" x1="7502.25182" y1="7805.88448" x2="7991.14517" y2="7805.88448" xlink:href="#linear-gradient-2"/><linearGradient id="linear-gradient-6" x1="6984.85733" y1="6652.6441" x2="7408.43751" y2="6652.6441" xlink:href="#linear-gradient"/><linearGradient id="linear-gradient-7" x1="6876.72859" y1="7206.9017" x2="7516.56669" y2="7206.9017" xlink:href="#linear-gradient"/><linearGradient id="linear-gradient-8" x1="7606.41031" y1="7206.90581" x2="7995.11538" y2="7206.90581" xlink:href="#linear-gradient-2"/><linearGradient id="linear-gradient-9" x1="7498.28157" y1="6598.61914" x2="7995.11538" y2="6598.61914" xlink:href="#linear-gradient"/></defs><path d="M6756.29348,7037.02368c1.6891,3.37776,3.52621,7.01476,5.39014,10.83958,11.60731,23.61839,25.272,54.91584,25.272,84.80377,0,18.46107-5.89951,31.10963-17.06194,36.614-15.08417,7.43325-36.58892.83871-49.16131-9.105-21.85615-17.34108-54.31819-20.95254-78.97911-8.80556-20.80928,10.251-32.73944,30.093-32.73944,54.45927v2.15389c0,24.3567,11.93016,44.2061,32.73944,54.44976,24.65141,12.14437,57.123,8.51647,78.97911-8.79777,12.57239-9.96322,34.06718-16.53872,49.16131-9.1124,11.16243,5.5018,17.06194,18.16031,17.06194,36.60364,0,34.73754-18.46238,71.39831-30.66215,95.64205-.73187,1.45112-1.869,3.7254-2.66135,5.30969a1.99673,1.99673,0,0,1-2.69505.886q-3.19635-1.62926-6.72219-3.45281c-24.19744-12.48063-60.76-31.31563-95.76409-31.31563-24.42679,0-34.48349,10.22462-38.61211,18.79648-7.84914,16.29637-1.049,39.28248,9.30584,52.67713,16.49457,21.31606,19.94678,52.96622,8.38707,77.00483-9.79833,20.335-28.03653,31.5662-51.34247,31.5662h-2.14394c-23.31285,0-41.56318-11.23123-51.3403-31.5662-11.56966-24.03861-8.11876-55.68877,8.37668-77.00483,10.3631-13.39465,17.13681-36.38076,9.31407-52.67713-4.12862-8.57186-14.19311-18.79648-38.63117-18.79648-32.63375,0-66.62459,16.37284-90.67717,28.70439a1.99635,1.99635,0,0,1-2.90535-1.78269l0-336.43682a1.99643,1.99643,0,0,1,2.90462-1.78306c6.8118,3.488,14.39723,7.28808,22.56343,10.96528,20.63229,9.32877,44.7172,17.75177,68.11445,17.75177,23.45394,0,33.64047-9.40322,38.08415-17.75177.18652-.35358.38992-.70845.547-1.0538,7.82274-16.29636,1.049-39.29027-9.31407-52.66761-16.49544-21.32341-19.94634-52.98353-8.37668-77.00526,9.77712-20.354,28.02745-31.56577,51.3403-31.56577h2.14394c23.30594,0,41.54414,11.21176,51.34247,31.56577,11.55971,24.02173,8.1075,55.68185-8.38707,77.00526-10.35487,13.37734-17.155,36.37125-9.30584,52.66761.16705.34535.36266.70022.547,1.0538,4.43459,8.33946,14.6302,17.75177,38.06509,17.75177,23.40893,0,47.50121-8.423,68.13565-17.75177,10.22375-4.6077,19.60231-9.43957,27.62844-13.57165,2.37422-1.22062,4.62531-2.38884,6.77934-3.4796a1.98926,1.98926,0,0,1,2.70038.91175C6754.52574,7033.45185,6755.39261,7035.25348,6756.29348,7037.02368Z" transform="translate(-6407.18195 -6400.57353)" style="fill:none;stroke-miterlimit:10;stroke-width:2px;stroke:url(#linear-gradient)"/><path d="M7014.40616,7994.11538a1.98832,1.98832,0,0,1-1.78839-1.1019c-11.885-23.91257-26.76044-56.63335-26.76044-87.83481,0-18.44118,5.91163-31.09925,17.05284-36.59412,15.10409-7.43541,36.60061-.87679,49.17127,9.10547,11.81071,9.35561,26.71832,14.67175,41.81418,15.69784a72.95388,72.95388,0,0,0,37.16451-6.90267c20.80928-10.24192,32.7416-30.074,32.7416-54.44846V7829.872c0-24.36578-11.93232-44.19615-32.7416-54.44932a73.08768,73.08768,0,0,0-37.16451-6.92171,76.0607,76.0607,0,0,0-41.81418,15.71905c-12.57066,9.96322-34.06718,16.54824-49.17127,9.11282-11.14121-5.504-17.05284-18.1603-17.05284-36.60364,0-34.72974,18.45374-71.39873,30.67253-95.63209.84388-1.6915,1.65909-3.30942,2.44563-4.88228a1.99613,1.99613,0,0,1,2.69047-.88715c1.87684.95458,3.83083,1.95928,5.88567,3.01615,17.43152,9.00161,41.29357,21.26889,66.344,27.43629a123.58791,123.58791,0,0,0,29.39889,3.89882c24.44628,0,34.5125-10.23414,38.64112-18.816,7.83053-16.28642,1.03951-39.29936-9.31406-52.67627-16.49544-21.31692-19.94635-52.97617-8.38621-76.99617,9.79663-20.34363,28.03654-31.58482,51.34074-31.58482h2.14307c23.30594,0,41.54457,11.24119,51.3429,31.58482,11.55971,24.02,8.10753,55.67925-8.37971,76.99617-10.36267,13.38469-17.15282,36.38985-9.3132,52.67627,4.11869,8.58181,14.18575,18.816,38.63116,18.816,34.98509,0,71.54761-18.85447,95.745-31.33511,2.05619-1.05806,4.012-2.06384,5.89562-3.01941a1.99444,1.99444,0,0,1,2.68766.89111c.78287,1.57263,1.59329,3.19032,2.43892,4.88158,12.21709,24.23336,30.66994,60.90235,30.66994,95.63209,0,18.44334-5.909,31.09968-17.06064,36.60364-15.09543,7.43542-36.59065.8504-49.17039-9.11282-21.83925-17.31424-54.33031-20.94215-78.97177-8.79734-20.80885,10.25317-32.739,30.08354-32.739,54.44932v2.16471c0,24.37445,11.93016,44.20654,32.739,54.44846,24.65141,12.147,57.13252,8.52642,78.97177-8.79517,12.57974-9.98226,34.08405-16.54088,49.17039-9.10547,11.15164,5.49487,17.06064,18.15294,17.06064,36.59412,0,31.20146-14.87549,63.92225-26.75877,87.83477a1.98828,1.98828,0,0,1-1.78841,1.102Z" transform="translate(-6407.18195 -6400.57353)" style="fill:none;stroke-miterlimit:10;stroke-width:2px;stroke:url(#linear-gradient-2)"/><path d="M6742.58468,6401.57358a6.21189,6.21189,0,0,1,5.54878,9.00449l-.03144.06247c-12.31186,24.48609-30.9495,61.48139-30.9495,96.88323,0,24.74792,10.11165,34.915,18.59177,39.09552,16.08734,7.92834,38.825,1.0525,52.05524-9.42182,11.32817-9.00247,25.6351-14.10482,40.11729-15.13135a70.4986,70.4986,0,0,1,35.95838,6.643c20.12292,9.91475,31.20008,28.375,31.20008,51.96739v2.15476c0,23.59026-11.07716,42.05047-31.20008,51.97691a70.50954,70.50954,0,0,1-35.95838,6.63132,73.16158,73.16158,0,0,1-40.11729-15.12875c-13.2302-10.47692-35.9679-17.35968-52.05524-9.42226-8.48012,4.16108-18.59177,14.3567-18.59177,39.0951,0,35.4001,18.63764,72.39583,30.9495,96.89361.78106,1.54655,1.88245,3.86329,2.62317,5.44035a1.98929,1.98929,0,0,1-.85452,2.59889c-2.18,1.17677-4.42215,2.46048-6.89913,3.73209-9.46337,4.86823-20.84607,10.72749-33.25962,16.03454-19.02887,8.13434-40.47823,14.98162-61.26112,14.98162-16.94854,0-28.95443-5.16814-34.91107-14.98162a24.08255,24.08255,0,0,1-1.24248-2.256c-7.35708-15.28888-.8439-37.06238,8.99814-49.76719,17.12685-22.09937,20.68985-54.98163,8.69521-79.91478-10.14066-21.06418-29.74554-33.13456-53.80147-33.13456h-2.14394c-24.075,0-43.67769,12.07038-53.80839,33.13456-11.99507,24.93315-8.42472,57.81541,8.69261,79.91478,9.8533,12.70481,16.357,34.47831,9.0081,49.75723a25.44677,25.44677,0,0,1-1.24292,2.266c-5.98347,9.81348-17.96123,14.98162-34.93012,14.98162-20.7712,0-42.21146-6.84728-61.24034-14.98162-10.05165-4.29809-19.40837-8.94607-27.62628-13.14411a8.64954,8.64954,0,0,1-4.71589-7.707V6403.57358a2,2,0,0,1,2-2Z" transform="translate(-6407.18195 -6400.57353)" style="fill:none;stroke-miterlimit:10;stroke-width:2px;stroke:url(#linear-gradient-3)"/><path d="M6408.182,7992.11538V7649.42805a1.98621,1.98621,0,0,1,1.07587-1.774c23.94009-12.331,59.10012-30.00043,92.50664-30.00043,18.23085,0,30.71754,5.96053,36.173,17.25885,7.34885,15.26983.8452,37.0416-9.0081,49.7555-17.11733,22.09937-20.68768,54.98206-8.69261,79.91694,10.1307,21.05293,29.73343,33.13239,53.80839,33.13239h2.14394c24.05593,0,43.66081-12.07946,53.80147-33.13239,11.99464-24.93488,8.43164-57.81757-8.69521-79.91694-9.842-12.7139-16.33618-34.48567-8.99814-49.7555,5.42823-11.29832,17.9344-17.25885,36.15355-17.25885,34.33723,0,70.55613,18.67617,94.52074,31.02741,2.373,1.22594,4.62193,2.37238,6.77339,3.46562a1.99694,1.99694,0,0,1,.88037,2.67685c-.80883,1.61375-1.643,3.2783-2.52328,5.01259-12.31186,24.49735-30.9495,61.48356-30.9495,96.89318,0,24.74793,10.11165,34.91714,18.59177,39.09467,16.08734,7.92833,38.825,1.05465,52.05524-9.42226a72.98734,72.98734,0,0,1,40.11729-15.12053,70.42347,70.42347,0,0,1,35.95838,6.6231c20.12292,9.9247,31.20008,28.36847,31.20008,51.96782v2.16471c0,23.59157-11.07716,42.04269-31.20008,51.967a70.39839,70.39839,0,0,1-35.95838,6.63349,73.08042,73.08042,0,0,1-40.11729-15.1214c-13.2302-10.48427-35.9679-17.36011-52.05524-9.42225-8.48012,4.16107-18.59177,14.34717-18.59177,39.08514,0,30.547,13.84547,62.21865,25.56133,86.06081a1.99759,1.99759,0,0,1-1.79734,2.87592l-330.73454,0A2,2,0,0,1,6408.182,7992.11538Z" transform="translate(-6407.18195 -6400.57353)" style="fill:none;stroke-miterlimit:10;stroke-width:2px;stroke:url(#linear-gradient-4)"/><path d="M7990.14513,7992.11538l0-342.68733a1.98619,1.98619,0,0,0-1.07585-1.774c-23.94007-12.331-59.10013-30.00045-92.50669-30.00045-18.23084,0-30.71754,5.96053-36.173,17.25885-7.34886,15.26983-.8452,37.0416,9.0081,49.7555,17.11733,22.09937,20.68767,54.98206,8.6926,79.91694-10.1307,21.05293-29.73342,33.13239-53.80839,33.13239H7822.138c-24.05592,0-43.66081-12.07946-53.80146-33.13239-11.99464-24.93488-8.43165-57.81757,8.6952-79.91694,9.84205-12.7139,16.33618-34.48567,8.99815-49.7555-5.42823-11.29832-17.9344-17.25885-36.15355-17.25885-34.33723,0-70.55614,18.67617-94.52074,31.02741-2.37416,1.22654-4.62416,2.37351-6.77657,3.46719a1.99338,1.99338,0,0,0-.87881,2.67211c.80934,1.61471,1.64407,3.28032,2.5249,5.01576,12.31185,24.49735,30.9495,61.48356,30.9495,96.89318,0,24.74793-10.11166,34.91714-18.59177,39.09467-16.08734,7.92833-38.825,1.05465-52.05524-9.42226a72.98737,72.98737,0,0,0-40.1173-15.12053,70.42349,70.42349,0,0,0-35.95838,6.6231c-20.12291,9.9247-31.20008,28.36847-31.20008,51.96782v2.16471c0,23.59157,11.07717,42.04269,31.20008,51.967a70.3984,70.3984,0,0,0,35.95838,6.63349,73.08043,73.08043,0,0,0,40.1173-15.1214c13.23019-10.48427,35.9679-17.36011,52.05524-9.42225,8.48011,4.16107,18.59177,14.34717,18.59177,39.08514,0,30.547-13.84546,62.21861-25.56133,86.0608a1.99759,1.99759,0,0,0,1.79734,2.87591h330.73453A2,2,0,0,0,7990.14513,7992.11538Z" transform="translate(-6407.18195 -6400.57353)" style="fill:none;stroke-miterlimit:10;stroke-width:2px;stroke:url(#linear-gradient-5)"/><path d="M7366.24927,6401.57353a8.684,8.684,0,0,1,7.76085,4.80469c1.24285,2.48866,2.31906,4.64187,2.75745,5.51172,12.21709,24.245,30.66994,60.90451,30.66994,95.63383,0,18.442-5.909,31.10011-17.06064,36.60407-15.09543,7.43541-36.59065.84866-49.17039-9.11456-21.83925-17.31251-54.33031-20.94-78.97177-8.80512-20.80885,10.261-32.739,30.10214-32.739,54.46836v2.15476c0,24.35583,11.93016,44.20523,32.739,54.45884,24.65141,12.14438,57.13252,8.52469,78.97177-8.80729,12.57974-9.97274,34.08405-16.53829,49.17039-9.10287,11.15164,5.50179,17.06064,18.15987,17.06064,36.60364,0,34.73753-18.45285,71.38878-30.66994,95.62257l-.03812.07584a7.86,7.86,0,0,1-10.63216,3.47477l-.35192-.18237c-24.19744-12.47155-60.76-31.31433-95.745-31.31433-24.44541,0-34.50254,10.22332-38.63116,18.79518-5.44551,11.32514-3.82263,25.9151,1.159,38.22782a61.1581,61.1581,0,0,0,8.15424,14.45061c16.48724,21.31433,19.93942,52.974,8.37971,77.00353-9.79833,20.35531-28.037,31.57746-51.3429,31.57746h-2.134c-23.31329,0-41.5532-11.22215-51.34983-31.57746-11.56014-24.02952-8.10923-55.6892,8.38621-77.00353a61.81235,61.81235,0,0,0,8.146-14.45061c4.98161-12.31272,6.614-26.89272,1.159-38.22782-4.11953-8.57186-14.18575-18.79518-38.632-18.79518a124.46483,124.46483,0,0,0-29.39889,3.89017c-25.05042,6.17475-48.91247,18.43121-66.344,27.42416q-.18069.09393-.3628.18809a7.85843,7.85843,0,0,1-10.62144-3.48136l-.03753-.075c-12.21879-24.23379-30.67253-60.885-30.67253-95.62257,0-18.44377,5.91163-31.10185,17.05284-36.60364,15.10409-7.43542,36.60061-.86987,49.17127,9.10287,11.81071,9.36729,26.71832,14.67391,41.81418,15.71948a73.08633,73.08633,0,0,0,37.16451-6.91219c20.80928-10.25361,32.7416-30.103,32.7416-54.45884v-2.15476c0-24.36622-11.93232-44.2074-32.7416-54.46836a73.053,73.053,0,0,0-37.16451-6.90224,76.05717,76.05717,0,0,0-41.81418,15.70736c-12.57066,9.96322-34.06718,16.55-49.17127,9.11456-11.14121-5.504-17.05284-18.162-17.05284-36.60407,0-34.72932,18.45374-71.38878,30.67253-95.63383.43758-.86981,1.51341-3.02289,2.75609-5.51143a8.684,8.684,0,0,1,7.761-4.805Z" transform="translate(-6407.18195 -6400.57353)" style="fill:none;stroke-miterlimit:10;stroke-width:2px;stroke:url(#linear-gradient-6)"/><path d="M7368.58347,7035.77471c-1.87346,3.74-3.91613,7.82663-6.00208,12.08855h-.00909c-11.57961,23.72225-24.93834,54.83188-24.93834,84.80377,0,24.74792,10.11253,34.93444,18.58269,39.09552,16.09686,7.93743,38.82764,1.0525,52.06476-9.41273,21.05986-16.69711,52.3439-20.17831,76.0852-8.49743,20.12291,9.92427,31.20008,28.37539,31.20008,51.97734v2.15389c0,23.59027-11.07717,42.04139-31.20008,51.95874-23.7413,11.6878-55.03313,8.20833-76.0852-8.48791-13.23712-10.47735-35.9679-17.351-52.06476-9.41274-8.47016,4.16844-18.58269,14.34674-18.58269,39.08514,0,35.40011,18.6303,72.39627,30.94951,96.89362q1.42851,2.82807,2.73115,5.43178a1.99906,1.99906,0,0,1-.88017,2.67671c-1.89739.96707-3.86463,1.97455-5.93416,3.04571-23.95333,12.35124-60.1714,31.02741-94.5,31.02741-18.23863,0-30.73658-5.96054-36.173-17.25885-7.34669-15.26984-.843-37.04074,9.018-49.7555,17.09831-22.1089,20.67989-54.97211,8.6753-79.907-10.12291-21.072-29.73559-33.14235-53.80147-33.14235h-2.14307c-24.05679,0-43.67812,12.07038-53.8088,33.14235-11.99682,24.93488-8.42474,57.79809,8.70211,79.907,9.8442,12.71476,16.35565,34.48566,8.99816,49.7555-5.42652,11.29831-17.94221,17.25885-36.17306,17.25885a121.59386,121.59386,0,0,1-29.39889-3.98321c-24.51249-6.15745-47.9478-18.21051-65.11016-27.0442-2.06065-1.07014-4.02971-2.07672-5.91918-3.043a2.00159,2.00159,0,0,1-.87872-2.67694q1.3012-2.60853,2.72381-5.4343c12.3214-24.49735,30.95946-61.49351,30.95946-96.89362,0-24.7384-10.12161-34.9167-18.60173-39.08514-16.09513-7.93829-38.825-1.06461-52.04572,9.41274-21.05986,16.69624-52.35342,20.17571-76.07524,8.48791-20.12335-9.91735-31.21955-28.36847-31.21955-51.95874v-2.15389c0-23.602,11.0962-42.05307,31.21955-51.97734,23.72182-11.68088,55.01538-8.19968,76.07524,8.49743,13.22067,10.46523,35.95059,17.35016,52.04572,9.41273,8.48012-4.16108,18.60173-14.3476,18.60173-39.09552,0-29.97189-13.36868-61.08152-24.94527-84.80377-2.09806-4.26192-4.13857-8.34856-6.031-12.08855-.939-1.89571-1.84252-3.69838-2.71-5.44243a1.997,1.997,0,0,1,.88506-2.67172c1.88847-.95814,3.85644-1.966,5.9159-3.04308,17.16236-8.83369,40.59767-20.86771,65.11016-27.03295a121.14706,121.14706,0,0,1,29.39889-3.98321c18.23085,0,30.74654,5.97049,36.17306,17.25669,5.26116,10.91487,3.41455,25.13-1.65147,37.00525a58.99869,58.99869,0,0,1-7.34669,12.75241c-17.12685,22.10716-20.69893,54.97038-8.70211,79.91521,10.13068,21.06246,29.752,33.13456,53.81789,33.13456h2.134c24.06588,0,43.67856-12.0721,53.80147-33.13456,12.00459-24.94483,8.423-57.80805-8.6753-79.91521a58.17578,58.17578,0,0,1-7.35749-12.75241c-5.06516-11.8752-6.90267-26.09038-1.66056-37.00525,5.43645-11.2862,17.9344-17.25669,36.173-17.25669,34.32857,0,70.54664,18.66492,94.5,31.01616,2.076,1.07832,4.044,2.08724,5.937,3.04638a1.99514,1.99514,0,0,1,.88069,2.67246C7370.45023,7032.07912,7369.5433,7033.88047,7368.58347,7035.77471Z" transform="translate(-6407.18195 -6400.57353)" style="fill:none;stroke-miterlimit:10;stroke-width:2px;stroke:url(#linear-gradient-7)"/><path d="M7994.11538,7379.0555a2.00164,2.00164,0,0,1-2.92924,1.771c-1.01234-.52894-1.897-.98974-2.52586-1.31469-24.18527-12.48063-60.7578-31.31563-95.74288-31.31563-24.44585,0-34.49519,10.22462-38.63116,18.79648-7.84005,16.29637-1.0486,39.28248,9.31406,52.67713,16.48635,21.31606,19.95586,52.96622,8.38621,77.00483-9.79656,20.335-28.03654,31.5662-51.34983,31.5662h-2.14347c-23.3064,0-41.5446-11.23123-51.34294-31.5662-11.55018-24.03861-8.1075-55.68877,8.38708-77.00483,10.364-13.39465,17.14589-36.38076,9.30627-52.67713-4.129-8.57186-14.17666-18.79648-38.62251-18.79648-34.9946,0-71.55713,18.835-95.7537,31.31563q-3.66409,1.89795-6.97207,3.57532a1.99656,1.99656,0,0,1-2.693-.88948c-.80656-1.61914-1.979-3.9609-2.71988-5.42873-12.21882-24.24374-30.67211-60.90451-30.67211-95.64205,0-18.44333,5.909-31.10184,17.0628-36.60364,15.0937-7.42632,36.598-.85082,49.16131,9.1124,21.84841,17.31424,54.32775,20.94214,78.96965,8.79777,20.8179-10.24366,32.74892-30.09306,32.74892-54.44976v-2.15389c0-24.36622-11.931-44.20826-32.74892-54.45927-24.6419-12.147-57.12124-8.53552-78.96965,8.80556-12.56329,9.94374-34.06761,16.53828-49.16131,9.105-11.15376-5.50439-17.0628-18.15295-17.0628-36.614,0-29.88793,13.67512-61.18538,25.27287-84.80377,1.873-3.82482,3.701-7.46182,5.39924-10.83958l.03839-.07606a7.94273,7.94273,0,0,1,10.71739-3.49135q.8054.41345,1.62921.83534c8.01619,4.13208,17.40426,8.96395,27.628,13.57165,20.63445,9.32877,44.72672,17.75177,68.1257,17.75177,23.44485,0,33.64047-9.40322,38.07506-17.75177.19388-.35358.38-.70845.54745-1.0538,7.83962-16.29636,1.05773-39.29027-9.30627-52.66761-16.49458-21.32341-19.93726-52.98353-8.38708-77.00526,9.79834-20.354,28.03654-31.56577,51.34294-31.56577h2.14347c23.31329,0,41.55327,11.21176,51.34983,31.56577,11.56965,24.02173,8.10014,55.68185-8.38621,77.00526-10.36266,13.37734-17.15411,36.37125-9.31406,52.66761.16705.34535.36093.70022.547,1.0538,4.45319,8.33946,14.63972,17.75177,38.08414,17.75177,23.39725,0,47.48216-8.423,68.11445-17.75177,10.23331-4.6077,19.62349-9.43957,27.62843-13.57165.63278-.324,1.51705-.78308,2.52692-1.31006a2.00161,2.00161,0,0,1,2.92818,1.77151Z" transform="translate(-6407.18195 -6400.57353)" style="fill:none;stroke-miterlimit:10;stroke-width:2px;stroke:url(#linear-gradient-8)"/><path d="M7987.41737,6764.64854c-9.45212,4.86823-20.83742,10.72749-33.25959,16.03454-19.01939,8.13434-40.47654,14.98162-61.24038,14.98162-16.95937,0-28.95444-5.16814-34.921-14.98162a24.25693,24.25693,0,0,1-1.242-2.256c-7.35885-15.28888-.85519-37.06238,8.9981-49.76719,17.11733-22.09937,20.68989-54.98163,8.68352-79.91478-10.13156-21.06418-29.73342-33.13456-53.7993-33.13456h-2.14347c-24.0663,0-43.67037,12.07038-53.79241,33.13456-12.01368,24.93315-8.442,57.81541,8.68568,79.91478,9.842,12.70481,16.3457,34.47831,8.99814,49.75723a23.04709,23.04709,0,0,1-1.24248,2.266c-5.96616,9.81348-17.96119,14.98162-34.921,14.98162-20.77293,0-42.22272-6.84728-61.25116-14.98162-12.40317-5.307-23.79626-11.16631-33.25833-16.03454q-1.03779-.53786-2.046-1.05773a7.94077,7.94077,0,0,1-3.44861-10.63839l.03782-.07521c12.3309-24.49778,30.959-61.49351,30.959-96.89361,0-24.7384-10.112-34.934-18.59177-39.0951-16.09513-7.93742-38.82548-1.05466-52.05524,9.42226-21.05986,16.68759-52.3439,20.16662-76.07524,8.49743-20.12378-9.92644-31.21-28.38665-31.21-51.97691v-2.15476c0-23.59243,11.08626-42.05264,31.21-51.96739,23.73134-11.69,55.01538-8.21916,76.07524,8.48834,13.22976,10.47432,35.96011,17.35016,52.05524,9.42182,8.47972-4.18055,18.59177-14.3476,18.59177-39.09552,0-35.40184-18.62813-72.39714-30.959-96.88323l-.0197-.03907a6.228,6.228,0,0,1,5.55749-9.02789H7985.46a8.65539,8.65539,0,0,1,8.65538,8.65539v345.6797a8.67568,8.67568,0,0,1-4.64665,7.67134C7988.64546,6764.01161,7987.93717,6764.38093,7987.41737,6764.64854Z" transform="translate(-6407.18195 -6400.57353)" style="fill:none;stroke-miterlimit:10;stroke-width:2px;stroke:url(#linear-gradient-9)"/></svg>