<svg id="Layer_1" data-name="Layer 1" xmlns="http://www.w3.org/2000/svg" viewBox="0 0 1424.16947 1488.08337"><path d="M7279.10657,6899.51822s-2.559,11.7066-2.4234,20.1948c.1326,8.4912,2.275,19.838,10.3782,18.1342,5.5756-1.1708,4.5658-5.4116,10.4286-5.0898,5.6482.3124,9.4852,8.8638,9.4852,13.1046,0,10.2014-4.6478,16.6416-10.2992,16.4618-5.6514-.18-7.8728-6.0648-13.9344-6.0584-6.0614.0094-7.7466,5.241-7.3962,19.5982.3502,14.3572,2.5022,22.9114,2.5022,22.9114s-29.437,4.7458-41.5538,2.414c-7.0774-1.36-8.4848-3.3322-8.7876-7.0872-.3-3.7076,4.8244-7.7686,2.7292-14.2088-1.2716-3.9064-4.6574-7.4594-11.309-7.8758-6.6546-.4134-12.3406,3.5498-12.5206,9.2894-.3186,10.088,3.9506,13.1802,2.2214,16.7616-1.7322,3.5848-6.945,3.8748-22.82,3.0292-18.983-1.0096-25.85-4.0388-25.85-4.0388s1.9004-18.9516,2.724-30.0332c.71-9.5484-2.9462-12.2968-5.3492-12.9816-2.403-.6816-9.9048,2.9756-14.5402,2.6254-4.6362-.347-10.2684-4.244-9.9822-12.9246.18-5.4526,3.5198-11.35,9.3764-11.309,8.2822.0632,10.5036,3.8906,15.146,4.039,3.4552.1104,5.301-10.7096,5.6544-21.8104a87.528,87.528,0,0,0-.941-17.7364s40.1228-8.3202,46.7838-4.4768c5.2506,3.0284,1.7228,6.9412.4038,9.8946-2.0194,4.5216-2.9408,8.2482-1.8176,11.511,1.906,5.5534,8.0434,8.5164,14.3164,8.5164,7.674,0,12.1104-5.2884,12.3912-10.334.6058-10.9052-3.6508-13.8902-3.6856-17.3674-.0536-5.0512,12.1168-4.136,22.7096-2.1512C7261.493,6894.08382,7279.10657,6899.51822,7279.10657,6899.51822Z" transform="translate(-6457.78538 -6407.77644)" style="fill:none;stroke:#000;stroke-miterlimit:10;stroke-width:3px"/><path d="M7529.11344,7049.85624s-2.559,11.7066-2.4234,20.1948c.1326,8.4912,2.275,19.838,10.3782,18.1342,5.5756-1.1708,4.5658-5.4116,10.4286-5.0898,5.6482.3124,9.4852,8.8638,9.4852,13.1046,0,10.2014-4.6478,16.6416-10.2992,16.4618-5.6514-.18-7.8728-6.0648-13.9344-6.0584-6.0614.0094-7.7466,5.241-7.3962,19.5982.3502,14.3572,2.5022,22.9114,2.5022,22.9114s-29.437,4.7458-41.5538,2.414c-7.0774-1.36-8.4848-3.3322-8.7876-7.0872-.3-3.7076,4.8244-7.7686,2.7292-14.2088-1.2716-3.9064-4.6574-7.4594-11.309-7.8758-6.6546-.4134-12.3406,3.5498-12.5206,9.2894-.3186,10.088,3.9506,13.1802,2.2214,16.7616-1.7322,3.5848-6.945,3.8748-22.82,3.0292-18.983-1.0096-25.85-4.0388-25.85-4.0388s1.9004-18.9516,2.724-30.0332c.71-9.5484-2.9462-12.2968-5.3492-12.9816-2.403-.6816-9.9048,2.9756-14.5402,2.6254-4.6362-.347-10.2684-4.244-9.9822-12.9246.18-5.4526,3.5198-11.35,9.3764-11.309,8.2822.0632,10.5036,3.8906,15.146,4.039,3.4552.1104,5.301-10.7096,5.6544-21.8104a87.528,87.528,0,0,0-.941-17.7364s40.1228-8.3202,46.7838-4.4768c5.2506,3.0284,1.7228,6.9412.4038,9.8946-2.0194,4.5216-2.9408,8.2482-1.8176,11.511,1.906,5.5534,8.0434,8.5164,14.3164,8.5164,7.674,0,12.1104-5.2884,12.3912-10.334.6058-10.9052-3.6508-13.8902-3.6856-17.3674-.0536-5.0512,12.1168-4.136,22.7096-2.1512C7511.49984,7044.42184,7529.11344,7049.85624,7529.11344,7049.85624Z" transform="translate(-6457.78538 -6407.77644)" style="fill:none;stroke:#000;stroke-miterlimit:10;stroke-width:3px"/><path d="M7023.71387,6715.99213s-2.559,11.7066-2.4234,20.1948c.1326,8.4912,2.275,19.838,10.3782,18.1342,5.5756-1.1708,4.5658-5.4116,10.4286-5.0898,5.6482.3124,9.4852,8.8638,9.4852,13.1046,0,10.2014-4.6478,16.6416-10.2992,16.4618-5.6514-.18-7.8728-6.0648-13.9344-6.0584-6.0614.0094-7.7466,5.241-7.3962,19.5982.3502,14.3572,2.5022,22.9114,2.5022,22.9114s-29.437,4.7458-41.5538,2.414c-7.0774-1.36-8.4848-3.3322-8.7876-7.0872-.3-3.7076,4.8244-7.7686,2.7292-14.2088-1.2716-3.9064-4.6574-7.4594-11.309-7.8758-6.6546-.4134-12.3406,3.5498-12.5206,9.2894-.3186,10.088,3.9506,13.1802,2.2214,16.7616-1.7322,3.5848-6.945,3.8748-22.82,3.0292-18.983-1.0096-25.85-4.0388-25.85-4.0388s1.9004-18.9516,2.724-30.0332c.71-9.5484-2.9462-12.2968-5.3492-12.9816-2.403-.6816-9.9048,2.9756-14.5402,2.6254-4.6362-.347-10.2684-4.244-9.9822-12.9246.18-5.4526,3.5198-11.35,9.3764-11.309,8.2822.0632,10.5036,3.8906,15.146,4.039,3.4552.1104,5.301-10.7096,5.6544-21.8104a87.528,87.528,0,0,0-.941-17.7364s40.1228-8.3202,46.7838-4.4768c5.2506,3.0284,1.7228,6.9412.4038,9.8946-2.0194,4.5216-2.9408,8.2482-1.8176,11.511,1.906,5.5534,8.0434,8.5164,14.3164,8.5164,7.674,0,12.1104-5.2884,12.3912-10.334.6058-10.9052-3.6508-13.8902-3.6856-17.3674-.0536-5.0512,12.1168-4.136,22.7096-2.1512C7006.10027,6710.55773,7023.71387,6715.99213,7023.71387,6715.99213Z" transform="translate(-6457.78538 -6407.77644)" style="fill:none;stroke:#000;stroke-miterlimit:10;stroke-width:3px"/><path d="M7733.85314,7219.327s1.162,11.92656,3.89936,19.96241c2.73538,8.03964,8.26081,18.17914,15.44841,14.0678,4.94608-2.82744,2.682-6.55277,8.36-8.04808,5.47093-1.43831,11.75,5.52032,13.05311,9.55594,3.13471,9.70784.69074,17.26464-4.74248,18.83012-5.43329,1.56528-9.35551-3.3522-15.12187-1.48349-5.76525,1.87151-5.76134,7.36783-1.01617,20.92273,4.745,13.555,9.42141,21.034,9.42141,21.034s-26.55448,13.56167-38.80157,15.066c-7.15289.88056-9.09822-.56375-10.54022-4.044-1.42476-3.436,2.20383-8.8752-1.769-14.36-2.41045-3.32666-6.72421-5.66737-13.182-4.0197-6.45967,1.65145-10.65275,7.17011-9.06036,12.68733,2.79668,9.69782,7.80951,11.32857,7.26448,15.268-.54685,3.94363-5.41833,5.82141-20.78511,9.89483-18.3748,4.87239-25.84039,4.09986-25.84039,4.09986s-4.015-18.61865-6.63647-29.41718c-2.25841-9.3046-6.58225-10.79654-9.07942-10.70981-2.49618.08978-8.51124,5.87521-13.03,6.96633-4.51852,1.09441-11.0757-.88336-13.47075-9.23193-1.5042-5.2441-.13815-11.88244,5.44769-13.643,7.90092-2.48484,11.19094.47479,15.65433-.81052,3.322-.95666,1.75365-11.82036-1.32113-22.49267a87.52806,87.52806,0,0,0-6.34556-16.58913s35.62493-20.2467,43.14467-18.63606c5.92715,1.26846,3.77236,6.076,3.42471,9.2918-.53229,4.92336-.264,8.75279,1.80747,11.51259,3.52025,4.699,10.27119,5.63277,16.24069,3.70518,7.30272-2.35808,9.89944-8.75385,8.61623-13.64162-2.77449-10.56374-7.74239-12.09634-8.844-15.39461-1.60315-4.79035,10.25965-7.65918,20.94985-9.02539C7715.42182,7219.56785,7733.85314,7219.327,7733.85314,7219.327Z" transform="translate(-6457.78538 -6407.77644)" style="fill:none;stroke:#000;stroke-miterlimit:10;stroke-width:3px"/><path d="M7879.26238,7025.1771s-15.718,3.389-29.821,3.2534c-12.0428-.1136-21.3054-1.0318-21.2044-7.9982.1008-6.9672,6.2602-6.9672,5.3514-13.5304-.9086-6.5634-7.7748-8.8858-14.843-8.7848s-13.8334,4.7458-13.8334,10.2994c0,5.5534,5.5536,9.8954,3.4332,13.9334-2.1204,4.039-12.0158,7.2702-24.0016,6.475-11.3296-.751-25.379-4.285-25.379-4.285s-2.3224,12.7226-2.2214,18.0742c.1008,5.3516.9086,11.511,2.0194,13.7324,1.1106,2.2214,3.1018,6.5158,7.27,5.4526,4.1684-1.0666,6.3614-6.2604,10.5012-5.5536,4.14.7068,11.1072,6.5632,10.5014,15.146-.606,8.5828-4.039,16.8626-10.1984,16.3576-6.1594-.5048-9.8954-5.6544-15.045-6.1594-5.1496-.5048-6.6642,7.977-6.4624,12.5208.202,4.5438.303,15.247,1.0098,20.1946.7068,4.9478,1.4136,8.7848,1.4136,8.7848s19.9928-2.9282,33.1192-2.6254c13.1266.303,20.0938,3.1302,20.3968,8.0778.3028,4.9478-7.876,7.0682-7.0682,12.7228.8078,5.6544,9.3904,11.006,15.045,10.905s14.2372-3.534,14.0352-10.2992c-.2018-6.7652-7.6738-9.5924-7.9768-13.7324s4.4428-7.27,9.2896-7.371c4.8466-.101,42.897,3.736,42.897,3.736s1.1714-10.5076,2.1544-21.274c1.2914-14.1456,0-21.1348-4.9816-20.731-2.7838.2242-7.3498,3.0796-13.0044,2.8084-5.805-.2778-11.9022-5.0992-11.1882-14.1932.5742-7.311,4.423-12.3124,10.0776-12.0094,5.6544.3028,11.6624,3.8874,15.2976,3.9884,2.54.0726,4.5776-15.5562,4.6068-20.7154A99.8213,99.8213,0,0,0,7879.26238,7025.1771Z" transform="translate(-6457.78538 -6407.77644)" style="fill:none;stroke:#000;stroke-miterlimit:10;stroke-width:3px"/><path d="M7487.74632,6665.98291s-15.718,3.389-29.821,3.2534c-12.0428-.1136-21.3054-1.0318-21.2044-7.9982.1008-6.9672,6.2602-6.9672,5.3514-13.5304-.9086-6.5634-7.7748-8.8858-14.843-8.7848s-13.8334,4.7458-13.8334,10.2994c0,5.5534,5.5536,9.8954,3.4332,13.9334-2.1204,4.039-12.0158,7.2702-24.0016,6.475-11.3296-.751-25.379-4.285-25.379-4.285s-2.3224,12.7226-2.2214,18.0742c.1008,5.3516.9086,11.511,2.0194,13.7324,1.1106,2.2214,3.1018,6.5158,7.27,5.4526,4.1684-1.0666,6.3614-6.2604,10.5012-5.5536,4.14.7068,11.1072,6.5632,10.5014,15.146-.606,8.5828-4.039,16.8626-10.1984,16.3576-6.1594-.5048-9.8954-5.6544-15.045-6.1594-5.1496-.5048-6.6642,7.977-6.4624,12.5208.202,4.5438.303,15.247,1.0098,20.1946.7068,4.9478,1.4136,8.7848,1.4136,8.7848s19.9928-2.9282,33.1192-2.6254c13.1266.303,20.0938,3.1302,20.3968,8.0778.3028,4.9478-7.876,7.0682-7.0682,12.7228.8078,5.6544,9.3904,11.006,15.045,10.905s14.2372-3.534,14.0352-10.2992c-.2018-6.7652-7.6738-9.5924-7.9768-13.7324s4.4428-7.27,9.2896-7.371c4.8466-.101,42.897,3.736,42.897,3.736s1.1714-10.5076,2.1544-21.274c1.2914-14.1456,0-21.1348-4.9816-20.731-2.7838.2242-7.3498,3.0796-13.0044,2.8084-5.805-.2778-11.9022-5.0992-11.1882-14.1932.5742-7.311,4.423-12.3124,10.0776-12.0094,5.6544.3028,11.6624,3.8874,15.2976,3.9884,2.54.0726,4.5776-15.5562,4.6068-20.7154A99.8213,99.8213,0,0,0,7487.74632,6665.98291Z" transform="translate(-6457.78538 -6407.77644)" style="fill:none;stroke:#000;stroke-miterlimit:10;stroke-width:3px"/><path d="M7657.62094,6570.44128s-3.389-15.718-3.2534-29.821c.1136-12.0428,1.0318-21.3054,7.9982-21.2044,6.9672.1008,6.9672,6.2602,13.5304,5.3514,6.5634-.9086,8.8858-7.7748,8.7848-14.843s-4.7458-13.8334-10.2994-13.8334c-5.5534,0-9.8954,5.5536-13.9334,3.4332-4.039-2.1204-7.2702-12.0158-6.475-24.0016.751-11.3296,4.285-25.379,4.285-25.379s-12.7226-2.3224-18.0742-2.2214c-5.3516.1008-11.511.9086-13.7324,2.0194-2.2214,1.1106-6.5158,3.1018-5.4526,7.27,1.0666,4.1684,6.2604,6.3614,5.5536,10.5012-.7068,4.14-6.5632,11.1072-15.146,10.5014-8.5828-.606-16.8626-4.039-16.3576-10.1984.5048-6.1594,5.6544-9.8954,6.1594-15.045.5048-5.1496-7.977-6.6642-12.5208-6.4624-4.5438.202-15.247.303-20.1946,1.0098-4.9478.7068-8.7848,1.4136-8.7848,1.4136s2.9282,19.9928,2.6254,33.1192c-.303,13.1266-3.1302,20.0938-8.0778,20.3968-4.9478.3028-7.0682-7.876-12.7228-7.0682-5.6544.8078-11.006,9.3904-10.905,15.045s3.534,14.2372,10.2992,14.0352c6.7652-.2018,9.5924-7.6738,13.7324-7.9768s7.27,4.4428,7.371,9.2896c.101,4.8466-3.736,42.897-3.736,42.897s10.5076,1.1714,21.274,2.1544c14.1456,1.2914,21.1348,0,20.731-4.9816-.2242-2.7838-3.0796-7.3498-2.8084-13.0044.2778-5.805,5.0992-11.9022,14.1932-11.1882,7.311.5742,12.3124,4.423,12.0094,10.0776-.3028,5.6544-3.8874,11.6624-3.9884,15.2976-.0726,2.54,15.5562,4.5776,20.7154,4.6068A99.8213,99.8213,0,0,0,7657.62094,6570.44128Z" transform="translate(-6457.78538 -6407.77644)" style="fill:none;stroke:#000;stroke-miterlimit:10;stroke-width:3px"/><path d="M7537.7701,7541.86062s-8.83423-13.43493-13.79852-26.636c-4.24114-11.27185-6.72837-20.24138-.1952-22.66185,6.53384-2.42094,8.7572,3.32317,14.54984.10653,5.7929-3.21652,5.48023-10.4581,2.83464-17.01329s-9.41926-11.18763-14.59843-9.183c-5.179,2.00461-7.22354,8.7511-11.75469,8.23126-4.53208-.51949-11.11737-8.58135-14.70229-20.04608-3.38927-10.83682-5.165-25.21464-5.165-25.21464s-12.70312,2.42665-17.65745,4.4526c-4.9544,2.02577-10.40692,5.00246-12.07759,6.84023-1.67073,1.83758-4.95683,5.24467-2.46072,8.74806,2.49935,3.50235,8.13458,3.67268,8.96977,7.7885.83527,4.116-2.11133,12.72744-10.33413,15.26062-8.22288,2.533-17.18364,2.3202-18.936-3.60621-1.75259-5.92633,1.70123-11.26929.31333-16.254-1.38808-4.98462-9.84475-3.33543-14.00935-1.50707-4.16453,1.82856-14.10964,5.78628-18.46852,8.23135-4.35908,2.44515-7.68224,4.48934-7.68224,4.48934s9.94756,17.58785,14.4034,29.93854c4.45574,12.35094,4.3341,19.86893-.17055,21.93743-4.50491,2.06839-9.43464-4.79357-14.4164-1.9991-4.98158,2.7944-6.8743,12.73011-4.739,17.967s8.43493,12.00163,14.67109,9.37122c6.23623-2.63022,6.17565-10.619,9.92714-12.396s8.38356,1.519,10.2273,6.00257c1.84366,4.48337,12.00039,41.35336,12.00039,41.35336s10.222-2.7005,20.61733-5.67012c13.658-3.9018,19.70984-7.629,17.53506-12.129-1.214-2.51518-5.525-5.74261-7.31324-11.11386-1.83636-5.51389.45907-12.94038,9.19766-15.55718,7.02535-2.10356,13.07884-.31961,14.83741,5.06312,1.75868,5.38247.58447,12.27933,1.80247,15.70589.84916,2.395,16.15974-1.34635,20.98163-3.18143A99.82083,99.82083,0,0,0,7537.7701,7541.86062Z" transform="translate(-6457.78538 -6407.77644)" style="fill:none;stroke:#000;stroke-miterlimit:10;stroke-width:3px"/><path d="M7225.02841,7553.32893s-15.74667-3.25319-28.59153-9.07748c-10.96935-4.97147-19.0705-9.55515-16.16238-15.88633,2.90826-6.332,8.54211-3.84243,10.36362-10.213,1.82177-6.37063-3.51989-11.27011-10.02582-14.03461s-14.57128-1.25042-16.816,3.82932c-2.24461,5.07956,1.08015,11.29579-2.49144,14.13221-3.572,2.83733-13.92909,1.79323-24.57081-3.77863-10.05936-5.26621-21.48161-14.17728-21.48161-14.17728s-7.26657,10.69837-9.33724,15.63417c-2.07085,4.93573-3.82153,10.89608-3.70337,13.37692.118,2.48075.20353,7.21355,4.44582,7.92581,4.24384.70922,8.349-3.155,11.84989-.83529,3.50108,2.31983,7.50672,10.4926,3.48355,18.09822-4.02336,7.60554-10.51,13.7913-15.93978,10.83983-5.42982-2.95128-6.76564-9.17154-11.27174-11.71486-4.50618-2.54313-9.31979,4.60278-10.97176,8.84045-1.65179,4.23775-5.88551,14.06853-7.23878,18.87966-1.35335,4.81132-2.25772,8.60661-2.25772,8.60661s19.47047,5.4025,31.35449,10.985c11.88411,5.58276,17.11412,10.98479,15.39151,15.63271-1.72288,4.648-10.06087,3.28173-11.60752,8.78036-1.54656,5.49845,4.14068,13.86241,9.35363,16.05555s14.45083,2.522,17.00048-3.74757c2.54983-6.26953-3.14191-11.8756-1.74572-15.78482s7.00217-4.854,11.47624-2.98733c4.47389,1.86655,37.72681,20.75568,37.72681,20.75568s5.3185-9.13759,10.56927-18.588c6.8987-12.41667,8.54244-19.33149,3.82268-20.97565-2.6369-.9201-7.96743-.15386-13.02994-2.68744-5.19741-2.60041-8.82562-9.47484-4.49685-17.50432,3.48022-6.45511,9.02213-9.47413,14.07179-6.91146,5.04956,2.5624,9.09608,8.26951,12.38028,9.8312,2.29394,1.093,10.47465-12.37867,12.58665-17.08586A99.82139,99.82139,0,0,0,7225.02841,7553.32893Z" transform="translate(-6457.78538 -6407.77644)" style="fill:none;stroke:#000;stroke-miterlimit:10;stroke-width:3px"/><path d="M6736.57334,6985.4929s-8.83422-13.43493-13.79852-26.636c-4.24114-11.27185-6.72836-20.24139-.1952-22.66186,6.53384-2.42094,8.7572,3.32318,14.54984.10654,5.79291-3.21653,5.48024-10.45811,2.83464-17.0133s-9.41926-11.18763-14.59842-9.183c-5.179,2.00461-7.22355,8.7511-11.7547,8.23126-4.53208-.51948-11.11736-8.58134-14.70229-20.04608-3.38927-10.83682-5.16494-25.21464-5.16494-25.21464s-12.70313,2.42665-17.65746,4.45261c-4.95439,2.02577-10.40692,5.00246-12.07758,6.84022-1.67074,1.83758-4.95684,5.24468-2.46073,8.74806,2.49935,3.50235,8.13458,3.67269,8.96978,7.78851.83526,4.116-2.11134,12.72744-10.33414,15.26061-8.22287,2.533-17.18364,2.32021-18.936-3.6062-1.75259-5.92634,1.70123-11.2693.31333-16.254-1.38808-4.98462-9.84474-3.33543-14.00935-1.50706-4.16453,1.82855-14.10963,5.78627-18.46852,8.23135-4.35908,2.44515-7.68224,4.48934-7.68224,4.48934s9.94756,17.58784,14.40341,29.93853c4.45573,12.351,4.33409,19.86894-.17056,21.93744-4.5049,2.06839-9.43464-4.79358-14.4164-1.9991-4.98158,2.7944-6.8743,12.7301-4.739,17.967s8.43492,12.00163,14.67108,9.37122c6.23623-2.63023,6.17565-10.619,9.92715-12.396s8.38355,1.519,10.22729,6.00257c1.84366,4.48337,12.0004,41.35337,12.0004,41.35337s10.222-2.70051,20.61733-5.67012c13.658-3.9018,19.70984-7.629,17.53506-12.129-1.21395-2.51518-5.525-5.74262-7.31325-11.11387-1.83635-5.51389.45907-12.94038,9.19767-15.55717,7.02534-2.10356,13.07883-.31961,14.8374,5.06311,1.75868,5.38247.58447,12.27933,1.80247,15.7059.84916,2.39495,16.15974-1.34635,20.98164-3.18143A99.82208,99.82208,0,0,0,6736.57334,6985.4929Z" transform="translate(-6457.78538 -6407.77644)" style="fill:none;stroke:#000;stroke-miterlimit:10;stroke-width:3px"/><path d="M7661.36209,6918.30824s-16.58724,6.73818-24.06511,10.76013c-7.47816,4.02053-16.56928,11.14118-11.33194,17.55523,3.60132,4.41049,6.90328,1.56431,9.31267,6.91861,2.32216,5.16185-3.51069,12.49815-7.277,14.44784-9.05966,4.6899-16.91548,3.523-19.35388-1.57848-2.43813-5.10137,1.768-9.78013-1.02572-15.15981-2.79463-5.378-8.21534-4.46908-20.80426,2.44216-12.58836,6.91274-19.19641,12.75678-19.19641,12.75678s-17.74806-23.9614-21.24764-35.79385c-2.04322-6.91223-.93851-9.06777,2.25579-11.06345,3.15343-1.9698,11.1167,2.55094,15.87179-2.27193,2.88472-2.92522,4.185-7.51024.63178-16.13135-3.08217-7.47746-13.287-12.40282-18.10421-9.27489-6.04177,3.92352-5.74106,9.0141-9.71725,9.12349-3.978.11121-10.43159-5.26558-14.72761-13.2968-6.48083-12.1138-9.83488-28.2231-9.83488-28.2231s19.90377-5.57686,30.12506-9.94092c8.804-3.759,9.56562-8.26961,9.06772-10.71753s-7.19606-7.42831-9.016-11.70565c-1.82152-4.27741-.95017-11.07105,6.88881-14.80655,4.925-2.34683,11.69774-2.09187,14.35365,3.12783,3.753,7.38334,1.37364,11.11645,3.37624,15.30733,1.49181,3.11845,11.94788-.21565,21.96837-5.005,10.02068-4.78945,18.414-14.30789,18.414-14.30789s23.077,30.91087,22.388,44.806c-.29984,6.05435-5.2511,5.29427-7.69673,4.31744-3.05742-1.22158-6.96869-2.26666-9.72928-.1971-4.12,3.08836-5.229,13.91334-2.34484,19.48486,3.5279,6.815,12.14479,9.40381,15.55229,7.63985,8.72752-4.518,4.40276-12.32846,10.62329-14.21607,6.01193-1.82422,10.88555,9.87956,15.09085,20.84132C7656.5318,6906.455,7661.36209,6918.30824,7661.36209,6918.30824Z" transform="translate(-6457.78538 -6407.77644)" style="fill:none;stroke:#000;stroke-miterlimit:10;stroke-width:3px"/><path d="M6934.97941,6556.32985s-17.76194-2.24783-26.25138-2.403c-8.489-.15661-19.90244,1.5999-18.477,9.757.98014,5.609,5.25286,4.74445,4.73158,10.59269-.5031,5.63773-9.1813,9.17783-13.41984,9.03339-10.19568-.34744-16.47365-5.21188-16.10148-10.85388.37236-5.64179,6.3308-7.66143,6.52945-13.72.197-6.0576-4.97436-7.91961-19.335-8.05858-14.36085-.13737-22.98418,1.722-22.98418,1.722s-3.74044-29.583-.99732-41.61331c1.60346-7.02727,3.62221-8.36569,7.38458-8.54145,3.71406-.17321,8.44335,7.668,14.951,5.79155,3.94764-1.13781,7.32666-4.49868,8.45038-13.75538.97441-8.02887-5.5111-17.32054-11.243-16.95234-7.18911.46222-9.41978,5.04791-12.94016,3.19614-3.5228-1.85105-6.51664-9.69937-6.3294-18.80547.28156-13.73558,5.24594-29.42361,5.24594-29.42361s20.0849,4.88448,31.13383,6.08488c9.5169,1.03392,12.38981-2.5259,13.15445-4.904s-2.63654-10.00059-2.12867-14.62118c.50648-4.62143,4.59306-10.118,13.25707-9.53623,5.4433.3656,11.22353,3.90452,10.9831,9.75612-.34344,8.27531-4.24607,10.365-4.5523,14.99966-.22641,3.44949,10.52285,5.66287,21.605,6.39413,11.08232.73126,23.06154-3.45759,23.06154-3.45759s4.98352,38.25172-2.42169,50.02935c-3.22625,5.1319-7.171,2.04456-8.825-.00476-2.06753-2.5623-4.96595-5.38885-8.38635-4.93628-5.10455.67514-11.37253,9.57023-11.5862,15.84039-.26136,7.66955,5.98387,14.1464,9.81865,14.27708,9.8219.33471,9.876-8.593,16.224-7.19262,6.13507,1.35353,4.653,13.94456,2.95156,25.56135C6936.57247,6543.62974,6934.97941,6556.32985,6934.97941,6556.32985Z" transform="translate(-6457.78538 -6407.77644)" style="fill:none;stroke:#000;stroke-miterlimit:10;stroke-width:3px"/><path d="M6668.69724,6647.28814s-14.149,10.97014-20.26175,16.86332c-6.11336,5.89189-12.94184,15.20445-6.166,19.96445,4.65925,3.27313,7.06917-.3595,10.8359,4.14443,3.63074,4.34223-.00245,12.98187-3.10169,15.87683-7.45511,6.96376-15.334,7.96328-19.06031,3.71062-3.72605-4.25265-.9409-9.894-5.08447-14.31851-4.14406-4.42269-9.11742-2.08261-19.37016,7.9736-10.25179,10.05752-15.03462,17.46992-15.03462,17.46992s-23.5632-18.27341-30.13027-28.71983c-3.83521-6.10285-3.35414-8.47673-.818-11.26141,2.50375-2.74871,11.39245-.54825,14.66722-6.47673,1.98685-3.596,1.99969-8.36178-3.7512-15.70184-4.98826-6.36628-16.14441-8.35054-19.9371-4.03714-4.75663,5.41031-3.09138,10.23021-6.89006,11.41009-3.79989,1.1821-11.46645-2.25053-17.773-8.82192-9.51342-9.91161-17.09619-24.51507-17.09619-24.51507s17.656-10.74832,26.3176-17.71228c7.46056-5.99838,6.97484-10.547,5.83392-12.76928s-8.9358-5.20718-11.84393-8.83354c-2.90971-3.626-3.90675-10.40232,2.631-16.11729,4.10752-3.59049,10.69715-5.17533,14.66485-.86761,5.60867,6.09437,4.32673,10.33159,7.3874,13.82532,2.27906,2.59925,11.445-3.43652,19.79835-10.75569s13.86208-18.75185,13.86208-18.75185,30.57194,23.52416,33.6637,37.08848c1.3475,5.91011-3.62493,6.51638-6.24355,6.23682-3.27379-.34985-7.32195-.299-9.42052,2.43957-3.13207,4.08686-1.27443,14.80877,3.00816,19.39353,5.23838,5.608,14.23426,5.77178,17.03826,3.15259,7.1818-6.70846.90718-13.05957,6.38613-16.558,5.29523-3.381,13.15044,6.57014,20.16167,15.98754C6660.84337,6637.18134,6668.69724,6647.28814,6668.69724,6647.28814Z" transform="translate(-6457.78538 -6407.77644)" style="fill:none;stroke:#000;stroke-miterlimit:10;stroke-width:3px"/><path d="M7805.30537,7620.99585s-14.14906,10.97013-20.26175,16.86332c-6.11336,5.89188-12.94185,15.20444-6.166,19.96445,4.65924,3.27312,7.06916-.3595,10.83589,4.14443,3.63074,4.34222-.00245,12.98186-3.10168,15.87683-7.45512,6.96376-15.334,7.96328-19.06032,3.71062-3.72605-4.25265-.9409-9.894-5.08447-14.31852-4.14406-4.42269-9.11741-2.0826-19.37016,7.97361-10.25179,10.05752-15.03462,17.46992-15.03462,17.46992s-23.5632-18.27342-30.13027-28.71984c-3.83521-6.10285-3.35414-8.47673-.818-11.26141,2.50376-2.74871,11.39245-.54824,14.66722-6.47672,1.98685-3.596,1.99969-8.36179-3.7512-15.70185-4.98826-6.36628-16.14441-8.35053-19.93709-4.03713-4.75663,5.41031-3.09138,10.2302-6.89006,11.41008-3.79989,1.18211-11.46646-2.25052-17.773-8.82191-9.51342-9.91162-17.09618-24.51507-17.09618-24.51507s17.656-10.74832,26.31759-17.71229c7.46056-5.99837,6.97484-10.547,5.83393-12.76927s-8.9358-5.20718-11.84394-8.83354c-2.9097-3.626-3.90675-10.40232,2.631-16.1173,4.10751-3.59048,10.69714-5.17533,14.66484-.86761,5.60868,6.09437,4.32674,10.33159,7.3874,13.82532,2.27906,2.59926,11.445-3.43651,19.79835-10.75568s13.86209-18.75185,13.86209-18.75185,30.57193,23.52416,33.66369,37.08848c1.3475,5.9101-3.62493,6.51638-6.24355,6.23682-3.27379-.34986-7.32195-.299-9.42052,2.43956-3.13207,4.08687-1.27442,14.80878,3.00816,19.39354,5.23838,5.608,14.23426,5.77177,17.03826,3.15258,7.1818-6.70846.90719-13.05957,6.38613-16.558,5.29523-3.38106,13.15045,6.57014,20.16167,15.98754C7797.45149,7610.88905,7805.30537,7620.99585,7805.30537,7620.99585Z" transform="translate(-6457.78538 -6407.77644)" style="fill:none;stroke:#000;stroke-miterlimit:10;stroke-width:3px"/><path d="M7277.61522,6612.95615s-17.90184-.25242-26.35561.54035c-8.45348.79134-19.59974,3.81008-17.27328,11.75723,1.59972,5.46469,5.74933,4.12887,5.88369,9.99876.12895,5.65867-8.10018,10.14475-12.32838,10.474-10.17081.79208-16.95223-3.34167-17.21177-8.99-.25931-5.64812,5.43664-8.31983,4.95821-14.36273-.47995-6.04177-5.82677-7.31527-20.11324-5.85142-14.28654,1.46547-22.64863,4.27521-22.64863,4.27521s-7.01715-28.981-5.63317-41.24232c.80955-7.16228,2.6664-8.71755,6.38568-9.31192,3.67155-.58644,9.246,6.67828,15.50377,4.08759,3.79608-1.57108,6.7791-5.28791,6.86319-14.61219.07269-8.08746-7.40886-16.59766-13.06387-15.59235-7.09268,1.2613-8.79789,6.0672-12.50286,4.6197-3.7073-1.44652-7.558-8.91188-8.38769-17.982-1.25243-13.68126,1.93092-29.82516,1.93092-29.82516s20.50442,2.61347,31.61829,2.57384c9.57284-.03416,12.03071-3.89225,12.52529-6.34084s-3.73567-9.64406-3.74642-14.29246c-.0122-4.64909,3.43571-10.56726,12.11054-10.95557,5.45012-.2439,11.589,2.62813,12.00287,8.47.58184,8.262-3.06332,10.774-2.85063,15.41386.1598,3.45321,11.08887,4.45367,22.1834,3.94412,11.09473-.50956,22.5319-6.00857,22.5319-6.00857s9.21949,37.457,3.17432,49.98723c-2.63364,5.45977-6.89816,2.83174-8.77041.97972-2.34046-2.31567-5.53609-4.80126-8.88465-3.97-4.99739,1.24036-10.234,10.77914-9.74686,17.034.59583,7.65083,7.52459,13.39059,11.35,13.09268,9.79793-.763,8.85577-9.64109,15.32036-8.95756,6.24776.6607,6.17949,13.33847,5.78456,25.07256C7277.7816,6600.15759,7277.61522,6612.95615,7277.61522,6612.95615Z" transform="translate(-6457.78538 -6407.77644)" style="fill:none;stroke:#000;stroke-miterlimit:10;stroke-width:3px"/><path d="M7832.87375,6724.98771s-.25241,17.90184.54035,26.35561c.79134,8.45348,3.81008,19.59974,11.75724,17.27328,5.46469-1.59972,4.12887-5.74933,9.99876-5.88369,5.65867-.12895,10.14474,8.10018,10.474,12.32838.79208,10.17081-3.34167,16.95223-8.99,17.21176-5.64811.25932-8.31983-5.43663-14.36272-4.9582-6.04178.47995-7.31528,5.82677-5.85142,20.11323,1.46547,14.28655,4.27521,22.64864,4.27521,22.64864s-28.98106,7.01715-41.24233,5.63317c-7.16228-.80955-8.71754-2.6664-9.31191-6.38568-.58644-3.67155,6.67827-9.246,4.08758-15.50377-1.57108-3.79608-5.28791-6.7791-14.61218-6.86319-8.08746-.07269-16.59766,7.40885-15.59236,13.06387,1.2613,7.09268,6.06721,8.79788,4.6197,12.50286-1.44652,3.7073-8.91188,7.558-17.982,8.38769-13.68125,1.25243-29.82515-1.93092-29.82515-1.93092s2.61347-20.50442,2.57384-31.61829c-.03417-9.57284-3.89225-12.03071-6.34084-12.52529s-9.64407,3.73567-14.29247,3.74642c-4.64908.0122-10.56725-3.43571-10.95556-12.11054-.2439-5.45012,2.62813-11.589,8.47-12.00287,8.262-.58184,10.774,3.06332,15.41386,2.85063,3.45322-.1598,4.45368-11.08887,3.94413-22.1834-.50956-11.09473-6.00858-22.5319-6.00858-22.5319s37.457-9.2195,49.98724-3.17432c5.45976,2.63364,2.83174,6.89816.97972,8.7704-2.31568,2.34046-4.80126,5.5361-3.97,8.88466,1.24035,4.99738,10.77913,10.234,17.034,9.74686,7.65084-.59583,13.3906-7.5246,13.09268-11.35-.763-9.79794-9.64109-8.85578-8.95755-15.32036.6607-6.24776,13.33847-6.17949,25.07256-5.78457C7820.0752,6724.82132,7832.87375,6724.98771,7832.87375,6724.98771Z" transform="translate(-6457.78538 -6407.77644)" style="fill:none;stroke:#000;stroke-miterlimit:10;stroke-width:3px"/><path d="M7396.048,7861.49206s-17.90184-.25242-26.35561.54035c-8.45348.79134-19.59974,3.81008-17.27328,11.75723,1.59972,5.46469,5.74933,4.12887,5.88369,9.99876.129,5.65867-8.10018,10.14475-12.32838,10.474-10.17081.79208-16.95223-3.34167-17.21177-8.99-.25931-5.64812,5.43664-8.31983,4.95821-14.36273-.47995-6.04177-5.82677-7.31527-20.11324-5.85141-14.28654,1.46546-22.64863,4.2752-22.64863,4.2752s-7.01715-28.98105-5.63317-41.24232c.80955-7.16228,2.6664-8.71755,6.38568-9.31192,3.67155-.58643,9.246,6.67828,15.50377,4.08759,3.79608-1.57108,6.7791-5.28791,6.86319-14.61219.07269-8.08746-7.40885-16.59766-13.06387-15.59235-7.09268,1.2613-8.79788,6.0672-12.50286,4.6197-3.7073-1.44652-7.558-8.91188-8.38769-17.982-1.25243-13.68126,1.93092-29.82516,1.93092-29.82516s20.50442,2.61347,31.61829,2.57384c9.57284-.03416,12.03071-3.89224,12.52529-6.34084s-3.73567-9.64406-3.74642-14.29246c-.0122-4.64909,3.43571-10.56726,12.11054-10.95557,5.45012-.2439,11.589,2.62813,12.00287,8.47.58184,8.262-3.06332,10.774-2.85063,15.41386.1598,3.45321,11.08887,4.45367,22.1834,3.94412,11.09473-.50956,22.5319-6.00857,22.5319-6.00857s9.21949,37.457,3.17432,49.98723c-2.63364,5.45977-6.89816,2.83174-8.7704.97972-2.34046-2.31567-5.5361-4.80126-8.88466-3.96995-4.99738,1.24035-10.234,10.77913-9.74686,17.034.59583,7.65083,7.5246,13.39059,11.35,13.09268,9.79794-.763,8.85578-9.64109,15.32036-8.95756,6.24776.6607,6.17949,13.33848,5.78457,25.07256C7396.21442,7848.6935,7396.048,7861.49206,7396.048,7861.49206Z" transform="translate(-6457.78538 -6407.77644)" style="fill:none;stroke:#000;stroke-miterlimit:10;stroke-width:3px"/><path d="M7076.354,7106.7634s-6.06862,16.84374-8.07215,25.09483c-2.00478,8.25035-2.78053,19.77208,5.491,20.16054,5.68776.26713,5.77613-4.09129,11.36979-2.30673,5.39218,1.72091,6.95378,10.96239,5.88814,15.06732-2.56335,9.8743-8.68021,14.93984-14.10512,13.34578-5.42467-1.5942-6.09577-7.84972-11.965-9.36532-5.86872-1.5138-8.81406,3.12681-12.08257,17.11119-3.267,13.985-3.33367,22.80624-3.33367,22.80624s-29.68641-2.80344-40.82856-8.105c-6.50819-3.0979-7.374-5.36-6.7247-9.07011.64122-3.66238,9.3253-6.56713,8.91376-13.32742-.2492-4.10078-2.792-8.13162-11.58053-11.2477-7.62291-2.70251-18.10565,1.59972-18.99677,7.27385-1.11728,7.11679,2.87131,10.29414.29614,13.32574-2.575,3.03413-10.8874,4.24368-19.73333,2.07437-13.3433-3.27133-27.57043-11.53861-27.57043-11.53861s9.14853-18.53553,12.73043-29.05644c3.08522-9.06212.23789-12.64243-1.91615-13.90747s-10.3349.39131-14.73339-1.11234c-4.39962-1.50249-8.87231-6.68977-6.41438-15.01816,1.5443-5.23244,6.259-10.10139,11.91718-8.59017,8.00106,2.14049,9.189,6.405,13.64525,7.715,3.317.9735,7.82212-9.034,10.95343-19.68963,3.13135-10.65586,1.65678-23.26037,1.65678-23.26037s38.41755,3.48147,48.296,13.27771c4.30446,4.26811.4309,7.44431-1.92988,8.61136-2.95164,1.45874-6.34243,3.6707-6.647,7.10745-.45472,5.12889,6.8587,13.18644,12.93122,14.76286,7.42779,1.92824,15.11109-2.75358,16.07522-6.46748,2.46938-9.5123-6.23152-11.51276-3.48-17.40233,2.65935-5.692,14.62377-1.49877,25.58957,2.696C7064.30737,7102.43807,7076.354,7106.7634,7076.354,7106.7634Z" transform="translate(-6457.78538 -6407.77644)" style="fill:none;stroke:#000;stroke-miterlimit:10;stroke-width:3px"/><path d="M6939.2592,7644.24814s-6.06862,16.84373-8.07215,25.09483c-2.00479,8.25035-2.78054,19.77208,5.491,20.16054,5.68776.26713,5.77613-4.0913,11.36979-2.30673,5.39218,1.72091,6.95378,10.96238,5.88814,15.06732-2.56335,9.8743-8.68021,14.93984-14.10512,13.34578-5.42466-1.5942-6.09577-7.84973-11.965-9.36532-5.86871-1.5138-8.814,3.12681-12.08257,17.11119-3.267,13.985-3.33367,22.80624-3.33367,22.80624s-29.68641-2.80344-40.82855-8.105c-6.5082-3.0979-7.374-5.36-6.72471-9.07011.64122-3.66238,9.3253-6.56713,8.91376-13.32743-.24919-4.10078-2.79195-8.13161-11.58053-11.24769-7.62291-2.70251-18.10565,1.59972-18.99677,7.27385-1.11728,7.11679,2.87131,10.29414.29614,13.32574-2.575,3.03412-10.8874,4.24367-19.73332,2.07436-13.34331-3.27132-27.57044-11.5386-27.57044-11.5386s9.14853-18.53553,12.73043-29.05645c3.08522-9.06211.2379-12.64243-1.91615-13.90746s-10.3349.39131-14.73339-1.11234c-4.39962-1.5025-8.87231-6.68977-6.41438-15.01817,1.5443-5.23243,6.259-10.10139,11.91719-8.59017,8.00105,2.1405,9.189,6.405,13.64524,7.715,3.317.97349,7.82212-9.034,10.95343-19.68964,3.13135-10.65585,1.65678-23.26036,1.65678-23.26036s38.41756,3.48147,48.296,13.27771c4.30445,4.26811.43089,7.4443-1.92989,8.61135-2.95164,1.45875-6.34242,3.67071-6.64694,7.10746-.45473,5.12889,6.85869,13.18644,12.93121,14.76285,7.42779,1.92825,15.1111-2.75358,16.07522-6.46748,2.46938-9.5123-6.23152-11.51275-3.48-17.40232,2.65935-5.692,14.62377-1.49878,25.58957,2.696C6927.21253,7639.92281,6939.2592,7644.24814,6939.2592,7644.24814Z" transform="translate(-6457.78538 -6407.77644)" style="fill:none;stroke:#000;stroke-miterlimit:10;stroke-width:3px"/><path d="M6964.49443,7395.07458s-14.149,10.97013-20.26175,16.86331c-6.11336,5.89189-12.94185,15.20445-6.166,19.96445,4.65925,3.27313,7.06917-.3595,10.8359,4.14443,3.63073,4.34223-.00246,12.98187-3.10169,15.87684-7.45511,6.96375-15.334,7.96327-19.06032,3.71062-3.72605-4.25265-.94089-9.894-5.08446-14.31852-4.14406-4.42269-9.11742-2.0826-19.37016,7.97361-10.2518,10.05751-15.03463,17.46991-15.03463,17.46991s-23.5632-18.27341-30.13027-28.71983c-3.8352-6.10285-3.35414-8.47673-.818-11.26141,2.50375-2.74871,11.39244-.54825,14.66722-6.47673,1.98685-3.596,1.99968-8.36178-3.75121-15.70184-4.98825-6.36628-16.14441-8.35054-19.93709-4.03714-4.75663,5.41031-3.09138,10.23021-6.89006,11.41009-3.79989,1.18211-11.46645-2.25053-17.773-8.82191-9.51343-9.91162-17.09619-24.51508-17.09619-24.51508s17.656-10.74832,26.31759-17.71228c7.46057-5.99838,6.97485-10.547,5.83393-12.76928s-8.9358-5.20718-11.84393-8.83353c-2.90971-3.626-3.90676-10.40232,2.631-16.1173,4.10752-3.59048,10.69714-5.17533,14.66484-.86761,5.60868,6.09437,4.32674,10.33159,7.38741,13.82532,2.27906,2.59926,11.445-3.43652,19.79834-10.75569s13.86209-18.75185,13.86209-18.75185,30.57194,23.52417,33.6637,37.08848c1.34749,5.91011-3.62494,6.51638-6.24355,6.23682-3.27379-.34985-7.322-.299-9.42053,2.43957-3.13206,4.08686-1.27442,14.80877,3.00816,19.39353,5.23839,5.608,14.23426,5.77178,17.03826,3.15259,7.18181-6.70846.90719-13.05957,6.38613-16.558,5.29524-3.381,13.15045,6.57014,20.16167,15.98755C6956.64056,7384.96778,6964.49443,7395.07458,6964.49443,7395.07458Z" transform="translate(-6457.78538 -6407.77644)" style="fill:none;stroke:#000;stroke-miterlimit:10;stroke-width:3px"/><path d="M6618.73421,7253.52915s-14.149,10.97013-20.26175,16.86332c-6.11336,5.89188-12.94185,15.20444-6.166,19.96444,4.65925,3.27313,7.06917-.3595,10.8359,4.14443,3.63073,4.34223-.00246,12.98187-3.10169,15.87684-7.45512,6.96375-15.334,7.96328-19.06032,3.71062-3.72605-4.25265-.9409-9.894-5.08447-14.31852-4.144-4.42269-9.11741-2.0826-19.37015,7.97361-10.2518,10.05751-15.03463,17.46991-15.03463,17.46991s-23.5632-18.27341-30.13027-28.71983c-3.83521-6.10285-3.35414-8.47673-.818-11.26141,2.50376-2.74871,11.39245-.54825,14.66723-6.47672,1.98684-3.596,1.99968-8.36179-3.75121-15.70185-4.98826-6.36628-16.14441-8.35053-19.93709-4.03714-4.75663,5.41032-3.09138,10.23021-6.89006,11.41009-3.79989,1.18211-11.46645-2.25052-17.773-8.82191-9.51343-9.91162-17.09619-24.51507-17.09619-24.51507s17.656-10.74832,26.31759-17.71229c7.46057-5.99837,6.97484-10.547,5.83393-12.76928s-8.9358-5.20717-11.84394-8.83353c-2.9097-3.626-3.90675-10.40232,2.631-16.1173,4.10751-3.59048,10.69714-5.17533,14.66484-.86761,5.60868,6.09437,4.32674,10.33159,7.38741,13.82532,2.27905,2.59926,11.445-3.43652,19.79834-10.75569s13.86209-18.75185,13.86209-18.75185,30.57193,23.52417,33.6637,37.08849c1.34749,5.9101-3.62494,6.51638-6.24356,6.23682-3.27378-.34986-7.322-.299-9.42052,2.43956-3.13207,4.08686-1.27442,14.80877,3.00816,19.39353,5.23838,5.608,14.23426,5.77178,17.03826,3.15259,7.1818-6.70846.90719-13.05957,6.38613-16.558,5.29524-3.38106,13.15045,6.57013,20.16167,15.98754C6610.88034,7243.42235,6618.73421,7253.52915,6618.73421,7253.52915Z" transform="translate(-6457.78538 -6407.77644)" style="fill:none;stroke:#000;stroke-miterlimit:10;stroke-width:3px"/><path d="M6618.73421,7620.99585s-14.149,10.97013-20.26175,16.86332c-6.11336,5.89188-12.94185,15.20444-6.166,19.96445,4.65925,3.27312,7.06917-.3595,10.8359,4.14443,3.63073,4.34222-.00246,12.98186-3.10169,15.87683-7.45512,6.96376-15.334,7.96328-19.06032,3.71062-3.72605-4.25265-.9409-9.894-5.08447-14.31852-4.144-4.42269-9.11741-2.0826-19.37015,7.97361-10.2518,10.05752-15.03463,17.46992-15.03463,17.46992s-23.5632-18.27342-30.13027-28.71984c-3.83521-6.10285-3.35414-8.47673-.818-11.26141,2.50376-2.74871,11.39245-.54824,14.66723-6.47672,1.98684-3.596,1.99968-8.36179-3.75121-15.70185-4.98826-6.36628-16.14441-8.35053-19.93709-4.03713-4.75663,5.41031-3.09138,10.2302-6.89006,11.41008-3.79989,1.18211-11.46645-2.25052-17.773-8.82191-9.51343-9.91162-17.09619-24.51507-17.09619-24.51507s17.656-10.74832,26.31759-17.71229c7.46057-5.99837,6.97484-10.547,5.83393-12.76927s-8.9358-5.20718-11.84394-8.83354c-2.9097-3.626-3.90675-10.40232,2.631-16.1173,4.10751-3.59048,10.69714-5.17533,14.66484-.86761,5.60868,6.09437,4.32674,10.33159,7.38741,13.82532,2.27905,2.59926,11.445-3.43651,19.79834-10.75568s13.86209-18.75185,13.86209-18.75185,30.57193,23.52416,33.6637,37.08848c1.34749,5.9101-3.62494,6.51638-6.24356,6.23682-3.27378-.34986-7.322-.299-9.42052,2.43956-3.13207,4.08687-1.27442,14.80878,3.00816,19.39354,5.23838,5.608,14.23426,5.77177,17.03826,3.15258,7.1818-6.70846.90719-13.05957,6.38613-16.558,5.29524-3.38106,13.15045,6.57014,20.16167,15.98754C6610.88034,7610.88905,6618.73421,7620.99585,6618.73421,7620.99585Z" transform="translate(-6457.78538 -6407.77644)" style="fill:none;stroke:#000;stroke-miterlimit:10;stroke-width:3px"/><path d="M7321.23522,7233.10007s-17.022,3.1358-29.2728,3.3376c-12.041.1988-21.7756-.7068-21.6746-7.6738.101-6.9672,3.6682-6.4284,2.7594-12.9918-.9088-6.5632-4.6448-9.3234-11.713-9.2224a10.87186,10.87186,0,0,0-11.0392,11.107c0,5.5536,4.6102,10.0974,2.4896,14.1364-2.1204,4.0388-13.0586,4.9816-24.7036,3.8534-11.3028-1.0948-25.0414-3.721-25.0414-3.721s-1.7094,18.6778-1.6086,24.0294c.101,5.3516.9088,11.511,2.0196,13.7324,1.1098,2.2214,3.1008,6.5174,7.2692,5.4526,4.1684-1.065,6.3614-6.2604,10.5012-5.5536,4.14.7068,11.1072,6.5632,10.5012,15.146-.6058,8.5828-4.0388,16.8626-10.1982,16.3576-6.1594-.5048-9.8954-5.6544-15.045-6.1594-5.1488-.5048-6.6634,7.977-6.4616,12.5208.202,4.5438.303,15.247,1.0098,20.1946.7068,4.9478,1.4136,8.7854,1.4136,8.7854s9.4418-3.0616,26.6814-5.1234c13.0384-1.5606,23.5616-1.297,23.8644,3.6498.303,4.9478-5.0486,11.5804-4.2408,17.235.8078,5.6544,5.7964,8.4658,11.3974,9.2392,3.231.4478,9.318.2648,12.6342-5.4684,3.2818-5.6736,1.6156-11.3534-2.6916-20.463-1.8996-4.0128,7.0618-6.7044,19.5826-4.7498,4.7898.748,30.4308,8.1798,30.4308,8.1798s2.6-11.2546,4.2346-22.3584c2.0668-14.0544,0-21.1366-4.9824-20.7328-2.783.2256-7.349,3.0796-13.0036,2.8098-5.8058-.2776-11.9022-5.099-11.189-14.193.5742-7.311,4.4238-12.3124,10.0784-12.0094,5.6544.3028,11.6624,3.8874,15.2976,3.9884,2.54.071,4.5784-15.5578,4.6068-20.7154C7325.20142,7245.18227,7321.23522,7233.10007,7321.23522,7233.10007Z" transform="translate(-6457.78538 -6407.77644)" style="fill:none;stroke:#000;stroke-miterlimit:10;stroke-width:3px"/></svg>